<svg width="29" height="29" viewBox="0 0 29 29" fill="none" xmlns="http://www.w3.org/2000/svg">
<path d="M5.84144 10.6666C3.69668 12.4444 2.37012 14.2222 2.37012 14.2222C2.37012 14.2222 7.67637 21.3333 14.222 21.3333C15.0338 21.3333 15.8265 21.2239 16.5923 21.0323M11.8704 7.40738C12.6305 7.2187 13.4169 7.11108 14.222 7.11108C20.7676 7.11108 26.0738 14.2222 26.0738 14.2222C26.0738 14.2222 24.7472 16 22.6025 17.7778" stroke="#686868" stroke-width="2.22222" stroke-linecap="round" stroke-linejoin="round"/>
<path d="M12.0381 12.2197C11.5544 12.747 11.2593 13.45 11.2593 14.2219C11.2593 15.8583 12.5859 17.1849 14.2222 17.1849C15.0298 17.1849 15.7619 16.8618 16.2963 16.3379" stroke="#686868" stroke-width="2.22222" stroke-linecap="round" stroke-linejoin="round"/>
<path d="M24.889 24.889L3.55566 3.55566" stroke="#686868" stroke-width="2.22222" stroke-linecap="round" stroke-linejoin="round"/>
</svg>
