<svg width="29" height="29" viewBox="0 0 29 29" fill="none" xmlns="http://www.w3.org/2000/svg">
<path d="M10.8348 25.5829C8.849 24.9917 7.08135 23.894 5.68169 22.4396C6.20384 21.8208 6.51851 21.0212 6.51851 20.1481C6.51851 18.1845 4.92663 16.5926 2.96295 16.5926C2.84417 16.5926 2.72674 16.5985 2.61095 16.6098C2.4532 15.8386 2.37036 15.0401 2.37036 14.2222C2.37036 12.9833 2.56045 11.7889 2.91305 10.6663C2.92966 10.6665 2.94629 10.6667 2.96295 10.6667C4.92663 10.6667 6.51851 9.07478 6.51851 7.1111C6.51851 6.54737 6.38731 6.01433 6.15383 5.54074C7.52444 4.2663 9.19732 3.31253 11.0531 2.79883C11.6411 3.95145 12.8395 4.74075 14.2222 4.74075C15.6049 4.74075 16.8033 3.95145 17.3913 2.79883C19.2471 3.31253 20.92 4.2663 22.2906 5.54074C22.0571 6.01433 21.9259 6.54737 21.9259 7.1111C21.9259 9.07478 23.5178 10.6667 25.4815 10.6667C25.4981 10.6667 25.5148 10.6665 25.5314 10.6663C25.884 11.7889 26.0741 12.9833 26.0741 14.2222C26.0741 15.0401 25.9912 15.8386 25.8335 16.6098C25.7177 16.5985 25.6003 16.5926 25.4815 16.5926C23.5178 16.5926 21.9259 18.1845 21.9259 20.1481C21.9259 21.0212 22.2406 21.8208 22.7627 22.4396C21.3631 23.894 19.5954 24.9917 17.6096 25.5829C17.1513 24.1493 15.808 23.1111 14.2222 23.1111C12.6364 23.1111 11.2931 24.1493 10.8348 25.5829Z" stroke="#484848" stroke-width="1.77778" stroke-linejoin="round"/>
<path d="M14.2222 18.3703C16.5132 18.3703 18.3704 16.5131 18.3704 14.2221C18.3704 11.9312 16.5132 10.074 14.2222 10.074C11.9313 10.074 10.0741 11.9312 10.0741 14.2221C10.0741 16.5131 11.9313 18.3703 14.2222 18.3703Z" stroke="#484848" stroke-width="1.77778" stroke-linejoin="round"/>
</svg>
