<svg width="29" height="29" viewBox="0 0 29 29" fill="none" xmlns="http://www.w3.org/2000/svg">
<path d="M11.2806 26.074C10.6999 24.1804 9.82387 22.7686 8.6525 21.8388C6.8954 20.4442 4.1036 21.311 3.07234 19.8724C2.04108 18.4339 3.79485 15.7884 4.41027 14.2275C5.02569 12.6666 2.05142 12.1146 2.39867 11.6715C2.63017 11.3761 4.13315 10.5236 6.90767 9.11404C7.69599 4.61826 10.6079 2.37036 15.6434 2.37036C23.1965 2.37036 26.0741 8.77389 26.0741 12.8467C26.0741 16.9196 22.5897 21.3073 17.6261 22.2534C17.1823 22.8998 17.8225 24.1734 19.5465 26.074" stroke="#484848" stroke-width="1.77778" stroke-linecap="round" stroke-linejoin="round"/>
<path fill-rule="evenodd" clip-rule="evenodd" d="M11.5553 8.59254C11.1682 10.0944 11.2834 11.1489 11.9009 11.7561C12.5185 12.3634 13.571 12.7605 15.0584 12.9474C14.7209 14.8845 15.1324 15.7932 16.2928 15.6736C17.4532 15.554 18.1504 15.0719 18.3845 14.2271C20.198 14.7368 21.1809 14.3102 21.3331 12.9474C21.5615 10.9032 20.4592 9.27254 20.0073 9.27254C19.5553 9.27254 18.3845 9.21755 18.3845 8.59254C18.3845 7.96748 17.0168 7.61435 15.7824 7.61435C14.548 7.61435 15.2909 6.78229 13.5959 7.11106C12.4659 7.3302 11.7857 7.82401 11.5553 8.59254Z" stroke="#484848" stroke-width="1.77778" stroke-linejoin="round"/>
<path d="M18.0742 15.1113C17.4716 15.4853 16.6447 16.1071 16.2965 16.5928C15.426 17.8073 14.7199 18.5468 14.5654 19.3235" stroke="#484848" stroke-width="1.77778" stroke-linecap="round"/>
</svg>
