<svg width="29" height="29" viewBox="0 0 29 29" fill="none" xmlns="http://www.w3.org/2000/svg">
<path d="M10.6667 3.55554H4.74073C4.08617 3.55554 3.55554 4.08617 3.55554 4.74073V10.6667C3.55554 11.3212 4.08617 11.8518 4.74073 11.8518H10.6667C11.3212 11.8518 11.8518 11.3212 11.8518 10.6667V4.74073C11.8518 4.08617 11.3212 3.55554 10.6667 3.55554Z" stroke="#484848" stroke-width="1.77778" stroke-linejoin="round"/>
<path d="M10.6667 16.5927H4.74073C4.08617 16.5927 3.55554 17.1233 3.55554 17.7778V23.7038C3.55554 24.3583 4.08617 24.8889 4.74073 24.8889H10.6667C11.3212 24.8889 11.8518 24.3583 11.8518 23.7038V17.7778C11.8518 17.1233 11.3212 16.5927 10.6667 16.5927Z" stroke="#484848" stroke-width="1.77778" stroke-linejoin="round"/>
<path d="M23.7036 3.55554H17.7777C17.1231 3.55554 16.5925 4.08617 16.5925 4.74073V10.6667C16.5925 11.3212 17.1231 11.8518 17.7777 11.8518H23.7036C24.3582 11.8518 24.8888 11.3212 24.8888 10.6667V4.74073C24.8888 4.08617 24.3582 3.55554 23.7036 3.55554Z" stroke="#484848" stroke-width="1.77778" stroke-linejoin="round"/>
<path d="M23.7036 16.5927H17.7777C17.1231 16.5927 16.5925 17.1233 16.5925 17.7778V23.7038C16.5925 24.3583 17.1231 24.8889 17.7777 24.8889H23.7036C24.3582 24.8889 24.8888 24.3583 24.8888 23.7038V17.7778C24.8888 17.1233 24.3582 16.5927 23.7036 16.5927Z" stroke="#484848" stroke-width="1.77778" stroke-linejoin="round"/>
</svg>
