<svg width="29" height="29" viewBox="0 0 29 29" fill="none" xmlns="http://www.w3.org/2000/svg">
<path d="M26.5779 5.98316C26.3131 5.85076 26.1988 6.10312 26.0442 6.23137C25.9914 6.27276 25.9464 6.32655 25.9015 6.37619C25.5146 6.79815 25.0626 7.07537 24.4715 7.04227C23.6079 6.99263 22.8704 7.26982 22.2188 7.94419C22.0802 7.1126 21.6199 6.61614 20.9192 6.29757C20.552 6.1321 20.1817 5.96659 19.9247 5.60664C19.7458 5.35015 19.6971 5.06468 19.6072 4.78336C19.5503 4.61373 19.4934 4.43998 19.3021 4.411C19.0937 4.3779 19.0125 4.55581 18.9307 4.70475C18.6049 5.31292 18.4782 5.98316 18.4911 6.66165C18.5191 8.1883 19.1511 9.40464 20.4057 10.2693C20.5484 10.3686 20.5851 10.4679 20.5401 10.6127C20.4548 10.9106 20.3524 11.2002 20.2629 11.4981C20.206 11.6884 20.1207 11.7297 19.9206 11.647C19.2322 11.3533 18.6375 10.9188 18.1116 10.3934C17.2195 9.51219 16.4127 8.53994 15.4069 7.77871C15.174 7.60311 14.9347 7.43612 14.6896 7.2781C13.663 6.26035 14.824 5.42463 15.093 5.32533C15.3738 5.2219 15.1907 4.8661 14.2821 4.87023C13.3734 4.87435 12.5423 5.18467 11.4832 5.59839C11.3281 5.66043 11.1651 5.70594 10.9986 5.7432C10.0367 5.557 9.03865 5.51565 7.99553 5.63562C6.03191 5.85904 4.46337 6.80647 3.31014 8.42411C1.9252 10.3686 1.59886 12.5779 1.99863 14.8823C2.41752 17.3109 3.63229 19.3216 5.4982 20.8937C7.43339 22.5238 9.66181 23.3223 12.2041 23.1692C13.7483 23.0782 15.4674 22.8672 17.4067 21.1916C17.8959 21.4398 18.4094 21.5391 19.2607 21.6136C19.917 21.6756 20.5484 21.5805 21.0371 21.4771C21.803 21.3116 21.7497 20.5875 21.4731 20.4552C19.2281 19.3877 19.7209 19.8222 19.2731 19.4705C20.4139 18.0928 22.1329 16.6613 22.8053 12.0235C22.8585 11.6553 22.8135 11.4236 22.8053 11.1257C22.8011 10.9437 22.8414 10.8733 23.0457 10.8527C23.6079 10.7865 24.154 10.6292 24.6551 10.3479C26.1093 9.53704 26.6963 8.20484 26.8349 6.60786C26.8556 6.36378 26.8308 6.11141 26.5779 5.98316ZM13.903 20.3559C11.7278 18.61 10.6723 18.0349 10.2364 18.0597C9.82885 18.0845 9.90228 18.5603 9.99174 18.8706C10.0853 19.1768 10.2079 19.3877 10.3791 19.6567C10.497 19.8346 10.5787 20.0994 10.2607 20.2979C9.55992 20.7406 8.34202 20.149 8.28516 20.1201C6.86712 19.2678 5.68127 18.1424 4.84606 16.6034C4.03932 15.1223 3.5713 13.5336 3.49371 11.8373C3.47302 11.4277 3.59145 11.2829 3.9902 11.2084C4.51531 11.1061 5.05381 11.0922 5.58353 11.1671C7.80421 11.4981 9.69491 12.5117 11.2795 14.117C12.184 15.0313 12.8681 16.1235 13.5735 17.1909C14.3229 18.3245 15.1297 19.4043 16.1562 20.2897C16.5187 20.6 16.8078 20.8358 17.085 21.0095C16.2498 21.1047 14.8561 21.1254 13.903 20.3559ZM14.9461 13.5088C14.9461 13.3267 15.0888 13.1819 15.2682 13.1819C15.3089 13.1826 15.3455 13.1895 15.3779 13.2026C15.4396 13.2263 15.4926 13.2684 15.5298 13.3231C15.567 13.3778 15.5865 13.4426 15.5858 13.5088C15.5863 13.5514 15.5784 13.5937 15.5625 13.6333C15.5466 13.6729 15.523 13.7089 15.4931 13.7393C15.4632 13.7697 15.4276 13.7938 15.3883 13.8104C15.349 13.8269 15.3068 13.8355 15.2641 13.8356C15.2216 13.8355 15.1796 13.8269 15.1405 13.8103C15.1014 13.7937 15.066 13.7695 15.0364 13.7391C15.0067 13.7086 14.9835 13.6726 14.968 13.633C14.9525 13.5935 14.945 13.5512 14.9461 13.5088ZM18.185 15.205C17.9776 15.2919 17.7697 15.3664 17.5696 15.3746C17.2603 15.3912 16.9221 15.263 16.7391 15.1057C16.4536 14.8616 16.2498 14.7251 16.1645 14.299C16.1278 14.1169 16.1479 13.8356 16.1805 13.6743C16.254 13.3267 16.1722 13.1033 15.9323 12.9006C15.7368 12.7351 15.488 12.6896 15.215 12.6896C15.1131 12.6896 15.0195 12.6441 14.9502 12.6068C14.9165 12.5907 14.8864 12.5677 14.862 12.5394C14.8375 12.5111 14.8192 12.478 14.8081 12.4423C14.797 12.4066 14.7935 12.3689 14.7976 12.3317C14.8018 12.2946 14.8136 12.2586 14.8323 12.2262C14.8607 12.1683 14.9993 12.0276 15.0319 12.0028C15.4027 11.7877 15.8304 11.858 16.2255 12.0194C16.5922 12.1724 16.8688 12.4538 17.2686 12.851C17.6761 13.3309 17.7496 13.4633 17.9812 13.8232C18.1648 14.1045 18.3319 14.3941 18.4457 14.7251C18.5155 14.932 18.4255 15.1016 18.185 15.205Z" fill="#4D6BFE"/>
</svg>
