<svg width="22" height="22" viewBox="0 0 22 22" fill="none" xmlns="http://www.w3.org/2000/svg">
<path d="M11 2.75002V19.25C7.79167 19.25 5.40764 15.0513 5.40764 15.0513H2.75C2.24373 15.0513 1.83333 14.6409 1.83333 14.1346V7.79664C1.83333 7.29037 2.24373 6.87998 2.75 6.87998H5.40764C5.40764 6.87998 7.79167 2.75002 11 2.75002Z" stroke="#999999" stroke-width="1.33333" stroke-linejoin="round"/>
<path d="M14.6667 6.87503C14.9523 7.13009 15.2112 7.41572 15.4386 7.72698C16.1053 8.6398 16.5 9.77275 16.5 11C16.5 12.2167 16.112 13.3406 15.4558 14.2493C15.2244 14.5698 14.9596 14.8635 14.6667 15.125" stroke="#999999" stroke-width="1.33333" stroke-linecap="round" stroke-linejoin="round"/>
<path d="M15.6915 18.8768C18.3717 17.277 20.1667 14.3481 20.1667 11C20.1667 7.7039 18.427 4.81411 15.8157 3.19874" stroke="#999999" stroke-width="1.33333" stroke-linecap="round"/>
</svg>
