<svg width="85" height="20" viewBox="0 0 85 20" fill="none" xmlns="http://www.w3.org/2000/svg">
<path d="M4.61126 5.16884C4.2109 4.73989 3.63181 4.22514 2.87399 3.62461C2.13047 3.00977 1.47274 2.50932 0.9008 2.12327L2.27345 0.343105C2.73101 0.614776 3.33869 1.03658 4.09651 1.60852C4.85433 2.16616 5.45487 2.64516 5.89812 3.04552L4.61126 5.16884ZM18.3378 13.6192C17.9803 13.4048 17.6157 13.1688 17.244 12.9115C18.0447 14.5701 18.6738 16.0214 19.1314 17.2654L17.2654 18.1662C16.9937 17.3654 16.6363 16.4432 16.193 15.3994C15.7641 14.3413 15.3637 13.4548 14.992 12.7399L16.2574 12.1608C14.6559 10.8596 13.4406 9.36544 12.6113 7.67822H11.2815C10.4379 9.35115 9.20107 10.8954 7.57104 12.3109L9.15817 12.8471C8.8722 13.705 8.49329 14.6559 8.02144 15.6997C7.54959 16.7435 7.09919 17.6514 6.67024 18.4235L4.80428 17.3726C5.73369 15.9427 6.5058 14.3842 7.12064 12.697C6.5773 13.1545 6.0554 13.562 5.55495 13.9195L4.54691 12.504C4.31814 13.5192 3.99642 14.6845 3.58176 15.9999C3.18141 17.3011 2.80965 18.3878 2.46648 19.26L0.214473 18.6595C0.500443 17.9588 0.9008 16.7721 1.41555 15.0991C1.94459 13.4119 2.3092 12.125 2.50938 11.2385L3.51742 11.4959L4.46112 11.7533C5.46201 11.1242 6.31277 10.4807 7.0134 9.823C7.72832 9.15097 8.32171 8.43604 8.79356 7.67822H5.38337V5.57635H9.8445C10.1162 4.86142 10.3378 4.03926 10.5094 3.10986H6.62734V1.02943H17.7587V3.10986H12.8472C12.647 4.02496 12.4254 4.84712 12.1823 5.57635H18.7024V7.67822H15.0348C15.521 8.47894 16.1287 9.17956 16.8579 9.7801C17.5871 10.3663 18.4879 10.924 19.5603 11.453L18.3378 13.6192ZM3.81769 10.1876C3.38874 9.75865 2.78105 9.22961 1.99463 8.60048C1.22252 7.95704 0.557637 7.43515 -3.8115e-06 7.03479L1.30831 5.27608C1.86595 5.63354 2.52368 6.09824 3.2815 6.67018C4.03932 7.24212 4.647 7.72827 5.10455 8.12862L3.81769 10.1876ZM10.4236 9.56562L12.4826 9.65141V16.9436C12.4826 17.5585 12.4039 18.0232 12.2466 18.3377C12.1037 18.6666 11.8606 18.8954 11.5174 19.0241C11.1886 19.167 10.7024 19.2743 10.059 19.3458L9.00804 19.453L8.34316 17.3082L9.26541 17.2225C9.62287 17.1939 9.87309 17.1581 10.0161 17.1152C10.1591 17.058 10.2592 16.9651 10.3163 16.8364C10.3878 16.7077 10.4236 16.4932 10.4236 16.193V9.56562ZM14.2842 12.1393C14.5558 12.7685 14.8633 13.5978 15.2064 14.6273C15.5496 15.6425 15.8213 16.5433 16.0214 17.3297L14.1769 18.0589C14.0054 17.344 13.748 16.4432 13.4048 15.3565C13.0617 14.2698 12.7614 13.3976 12.504 12.7399L14.2842 12.1393ZM27.1823 0.0857317L27.1394 3.36723H31.7078L31.4289 16.1715C31.4146 16.9436 31.2931 17.5299 31.0643 17.9302C30.8356 18.3306 30.4995 18.6166 30.0563 18.7881C29.613 18.9597 28.9696 19.0813 28.126 19.1528L27.0107 19.26L26.2171 16.7506L27.5684 16.6434C28.0259 16.6005 28.3548 16.5433 28.5549 16.4718C28.7551 16.4003 28.891 16.2573 28.9625 16.0428C29.0482 15.8284 29.0983 15.4852 29.1126 15.0133C29.1412 14.5844 29.2198 11.8963 29.3485 6.949C29.3485 6.56294 29.3485 6.26982 29.3485 6.06964C29.3628 5.86947 29.37 5.73363 29.37 5.66214H27.0751C26.975 7.94989 26.8034 9.85874 26.5603 11.3887C26.3315 12.9186 25.9812 14.3127 25.5094 15.571C25.0518 16.8292 24.4012 18.2019 23.5576 19.6889L21.4129 18.4235C22.2136 17.0795 22.8356 15.8427 23.2788 14.7131C23.7221 13.5692 24.0581 12.2966 24.2869 10.8954C24.5156 9.49413 24.6729 7.74972 24.7587 5.66214H22.4209V3.36723H24.823C24.8516 2.50932 24.8659 1.38689 24.8659 -5.93215e-05L27.1823 0.0857317ZM32.8445 19.067V2.18761H40.6086V19.067H38.3351V17.5442H35.1608V19.067H32.8445ZM35.1608 4.50396V15.378H38.3351V4.50396H35.1608ZM55.3083 4.89002H53.2922V3.81763H50.7399V1.823H53.2922V0.0213881L55.3083 0.107179V1.823H57.9893V0.0213881L59.9624 0.107179V1.823H62.7721V3.81763H59.9624V4.89002H57.9893V3.81763H55.3083V4.89002ZM58.2681 15.0348C58.7685 15.6925 59.4477 16.243 60.3056 16.6863C61.1635 17.1295 62.2573 17.4798 63.5871 17.7372L62.9651 19.8605C60.134 19.2028 58.0536 18.0303 56.7238 16.3431C56.2091 17.0866 55.437 17.7444 54.4075 18.3163C53.3923 18.9025 52.084 19.4173 50.4826 19.8605L49.6246 17.823C51.0831 17.5084 52.2413 17.1224 53.0992 16.6648C53.9571 16.2073 54.5791 15.6639 54.9651 15.0348H50.4397V13.1903H55.5228C55.5371 13.1474 55.5442 13.083 55.5442 12.9973C55.5585 12.8257 55.5657 12.4968 55.5657 12.0107H51.3405V10.4235L49.9893 11.3887C49.6461 10.6309 49.2958 9.98743 48.9383 9.45838V19.3887H46.9008V10.4879C46.2431 12.1322 45.6211 13.4477 45.0348 14.4343L43.3405 12.7613C43.8981 11.8605 44.4629 10.8167 45.0348 9.62997C45.6211 8.44319 46.1144 7.29216 46.5147 6.17688H44.4986V4.05356H46.9008V0.0642843L48.9383 0.150075V4.05356H50.8257V6.17688H48.9383V8.36455L49.9249 7.61388C50.4826 8.3431 50.9544 9.05803 51.3405 9.75865V5.38332H61.9142V12.0107H57.7104L57.689 12.9973V13.1903H62.8793V15.0348H58.2681ZM60.0482 7.97849V7.12058H53.2708V7.97849H60.0482ZM60.0482 9.47983H53.2708V10.2948H60.0482V9.47983ZM79.4236 11.8176L78.7587 9.69431L80.3887 9.54417C80.8892 9.50128 81.218 9.41549 81.3753 9.2868C81.5469 9.15812 81.6327 8.8793 81.6327 8.45034V0.450343L83.8203 0.536133V9.02943C83.8203 9.70146 83.7417 10.2162 83.5844 10.5737C83.4271 10.9311 83.1483 11.1956 82.748 11.3672C82.3619 11.5245 81.7971 11.6318 81.0536 11.6889L79.4236 11.8176ZM76.8069 17.008H85V19.067H66.2976V17.008H74.4906V14.8203H68.4423V12.8042L68.378 12.8686L66.5978 11.4959C67.3128 10.7524 67.8275 10.1233 68.1421 9.60852C68.4566 9.07947 68.664 8.50039 68.764 7.87125H66.6193V5.83372H68.9142V5.31897V3.19565H67.1126V1.07233H77.1716V3.19565H75.4557V5.83372H77.6005V7.87125H75.4557V11.4745H73.2681V7.87125H70.9946C70.8802 8.87215 70.6371 9.7372 70.2654 10.4664C69.8936 11.1814 69.2931 11.9535 68.4638 12.7828H74.4906V11.6889L76.8069 11.7747V12.7828H82.8981V14.8203H76.8069V17.008ZM78.0938 1.52273L80.2386 1.60852V9.02943H78.0938V1.52273ZM71.1018 3.19565V5.34042V5.83372H73.2681V3.19565H71.1018Z" fill="white"/>
</svg>
