<svg width="47" height="23" viewBox="0 0 47 23" fill="none" xmlns="http://www.w3.org/2000/svg">
<path d="M3.84593 3.87096C3.17562 4.85967 2.37962 5.87352 1.45794 6.91251L3.39722e-06 5.83163C0.821138 4.97698 1.58362 4.03854 2.28745 3.01631C2.99128 1.99408 3.56105 0.988609 3.99675 -0.000103085L5.93228 0.326674C5.56361 1.04726 5.20331 1.70082 4.8514 2.28734H11.1607V3.87096H7.0383C7.28967 4.34018 7.64996 5.06914 8.11918 6.05786L6.53556 6.71141C6.13337 5.68918 5.69767 4.74237 5.22845 3.87096H3.84593ZM21.5422 2.28734V3.87096H17.5455C17.9812 4.55803 18.3666 5.2451 18.7018 5.93217L17.2438 6.68628C17.0762 6.3176 16.8416 5.86514 16.54 5.32889C16.2551 4.77588 15.9702 4.2899 15.6853 3.87096H13.4733C13.2052 4.35694 12.8281 4.96022 12.3422 5.68081L10.6831 4.87643C11.3032 4.03854 11.8059 3.2593 12.1913 2.53871C12.5768 1.80136 12.9538 0.963473 13.3225 0.0250334L15.2077 0.301537C14.8056 1.23998 14.5039 1.90191 14.3028 2.28734H21.5422ZM11.0099 5.10266C11.1942 5.50485 11.454 6.15003 11.7891 7.03819H20.6122V10.683H18.7018V8.5464H2.8656V10.683H0.955201V7.03819H10.0798C9.82848 6.35112 9.61063 5.80649 9.42629 5.4043L11.0099 5.10266ZM18.1739 15.1322H5.10277V16.9421H18.7269V22.9246H16.8416V21.9192H5.10277V23H3.16724V10.4065H18.1739V15.1322ZM16.3138 13.624V11.8645H5.10277V13.624H16.3138ZM16.8416 20.4864V18.4251H5.10277V20.4864H16.8416ZM40.002 17.3191V20.2601H46.789V21.9694H31.4304V20.2601H38.2173V17.3191H32.8883V15.635H38.2173V12.8699H33.2402V1.58351H45.0294V12.8699H40.002V15.635H45.7081V17.3191H40.002ZM32.2599 18.1989L32.3353 19.0536C31.3969 19.3217 30.0814 19.6485 28.3888 20.0339C26.7131 20.4026 25.3557 20.6707 24.3167 20.8383L24.0653 19.1038C24.8194 19.0033 26.0176 18.7687 27.6599 18.4V11.5628H24.7691V9.80324H27.6599V4.09719H24.5178V2.36275H32.2096V4.09719H29.4194V9.80324H32.0839V11.5628H29.4194V17.9978C30.693 17.6962 31.6147 17.4532 32.1845 17.2689L32.2599 18.1989ZM38.2173 6.38464V3.29281H35.0249V6.38464H38.2173ZM40.002 6.38464H43.2949V3.29281H40.002V6.38464ZM35.0249 8.0688V11.1606H38.2173V8.0688H35.0249ZM40.002 8.0688V11.1606H43.2949V8.0688H40.002Z" fill="#484848"/>
</svg>
