<svg width="150" height="21" viewBox="0 0 150 21" fill="none" xmlns="http://www.w3.org/2000/svg">
<path d="M10.3868 4.41923e-05V16.2762H8.82338L8.54497 14.3702C8.31654 14.9841 7.89535 15.491 7.28143 15.8908C6.6675 16.2905 5.83228 16.4904 4.77575 16.4904C3.81917 16.4904 3.02677 16.3476 2.39857 16.0621C1.78464 15.7623 1.29921 15.3482 0.942277 14.82C0.585343 14.2917 0.335489 13.6635 0.192715 12.9353C0.0642189 12.1929 -2.93211e-05 11.3791 -2.93211e-05 10.4939C-2.93211e-05 9.70865 0.0642189 8.95195 0.192715 8.22381C0.335489 7.49566 0.585343 6.86032 0.942277 6.31778C1.29921 5.76096 1.78464 5.31836 2.39857 4.98998C3.02677 4.66161 3.81917 4.49742 4.77575 4.49742C5.34684 4.49742 5.83941 4.55452 6.25346 4.66874C6.6675 4.76868 7.02444 4.9186 7.32426 5.11848C7.62408 5.30409 7.87394 5.53252 8.07382 5.80379C8.2737 6.07506 8.43076 6.38203 8.54497 6.72468V4.41923e-05H10.3868ZM5.05416 14.927C5.75375 14.927 6.33198 14.8271 6.78886 14.6272C7.24573 14.4273 7.60981 14.1346 7.88108 13.7491C8.15235 13.3637 8.33795 12.8996 8.43789 12.3571C8.55211 11.8003 8.60922 11.1792 8.60922 10.4939C8.60922 9.83715 8.55211 9.2375 8.43789 8.69496C8.33795 8.13814 8.15235 7.66699 7.88108 7.2815C7.60981 6.88174 7.24573 6.57477 6.78886 6.36061C6.33198 6.14645 5.75375 6.03937 5.05416 6.03937C4.35457 6.03937 3.79775 6.16787 3.38371 6.42486C2.98394 6.66757 2.67698 7.00309 2.46282 7.43141C2.24866 7.84546 2.11302 8.32375 2.05591 8.86629C1.9988 9.39455 1.97025 9.93709 1.97025 10.4939C1.97025 11.0936 1.9988 11.6647 2.05591 12.2072C2.1273 12.7497 2.27007 13.2209 2.48423 13.6207C2.69839 14.0204 3.00536 14.3417 3.40512 14.5844C3.81917 14.8128 4.36884 14.927 5.05416 14.927ZM23.4455 9.33744C23.4455 9.49449 23.4312 9.69438 23.4027 9.93709C23.3884 10.1655 23.367 10.4154 23.3384 10.6867L15.5002 11.1792C15.5002 11.8074 15.5644 12.3571 15.6929 12.8283C15.8214 13.2851 16.0284 13.6635 16.314 13.9633C16.5995 14.2631 16.9779 14.4916 17.449 14.6486C17.9202 14.7914 18.5056 14.8628 19.2051 14.8628C19.8476 14.8628 20.4972 14.7914 21.154 14.6486C21.825 14.5058 22.3819 14.3274 22.8245 14.1132V15.8051C22.6531 15.8908 22.4318 15.9764 22.1606 16.0621C21.8893 16.1477 21.5823 16.2191 21.2397 16.2762C20.897 16.3476 20.5258 16.3976 20.126 16.4262C19.7405 16.469 19.3408 16.4904 18.9267 16.4904C18.0701 16.4904 17.3063 16.3976 16.6352 16.212C15.9785 16.0121 15.4216 15.6837 14.9648 15.2269C14.5079 14.7557 14.1581 14.1418 13.9154 13.3851C13.6869 12.6141 13.5727 11.6504 13.5727 10.4939C13.5727 9.33744 13.6869 8.38086 13.9154 7.62416C14.1581 6.85318 14.5008 6.23925 14.9434 5.78238C15.4002 5.31123 15.9499 4.98285 16.5924 4.79724C17.2491 4.59736 17.9916 4.49742 18.8197 4.49742C19.8048 4.49742 20.5972 4.64733 21.1968 4.94715C21.8108 5.2327 22.2819 5.61105 22.6103 6.0822C22.9387 6.53908 23.16 7.0602 23.2742 7.64557C23.3884 8.21667 23.4455 8.78063 23.4455 9.33744ZM21.6252 9.35886C21.6252 8.91626 21.5966 8.49508 21.5395 8.09531C21.4824 7.68127 21.3539 7.32433 21.154 7.02451C20.9684 6.71041 20.69 6.46769 20.3188 6.29636C19.9476 6.11076 19.4479 6.01795 18.8197 6.01795C18.1486 6.01795 17.5989 6.10362 17.1706 6.27495C16.7566 6.44628 16.4282 6.69613 16.1855 7.02451C15.9428 7.35289 15.7714 7.75265 15.6715 8.22381C15.5716 8.69496 15.5144 9.22322 15.5002 9.8086L21.6252 9.35886ZM35.8267 9.33744C35.8267 9.49449 35.8124 9.69438 35.7838 9.93709C35.7696 10.1655 35.7482 10.4154 35.7196 10.6867L27.8813 11.1792C27.8813 11.8074 27.9456 12.3571 28.0741 12.8283C28.2026 13.2851 28.4096 13.6635 28.6951 13.9633C28.9807 14.2631 29.359 14.4916 29.8302 14.6486C30.3013 14.7914 30.8867 14.8628 31.5863 14.8628C32.2288 14.8628 32.8784 14.7914 33.5352 14.6486C34.2062 14.5058 34.763 14.3274 35.2056 14.1132V15.8051C35.0343 15.8908 34.813 15.9764 34.5417 16.0621C34.2704 16.1477 33.9635 16.2191 33.6208 16.2762C33.2782 16.3476 32.907 16.3976 32.5072 16.4262C32.1217 16.469 31.7219 16.4904 31.3079 16.4904C30.4512 16.4904 29.6874 16.3976 29.0164 16.212C28.3596 16.0121 27.8028 15.6837 27.3459 15.2269C26.889 14.7557 26.5393 14.1418 26.2965 13.3851C26.0681 12.6141 25.9539 11.6504 25.9539 10.4939C25.9539 9.33744 26.0681 8.38086 26.2965 7.62416C26.5393 6.85318 26.8819 6.23925 27.3245 5.78238C27.7814 5.31123 28.3311 4.98285 28.9735 4.79724C29.6303 4.59736 30.3727 4.49742 31.2008 4.49742C32.186 4.49742 32.9783 4.64733 33.578 4.94715C34.1919 5.2327 34.6631 5.61105 34.9915 6.0822C35.3198 6.53908 35.5411 7.0602 35.6554 7.64557C35.7696 8.21667 35.8267 8.78063 35.8267 9.33744ZM34.0063 9.35886C34.0063 8.91626 33.9778 8.49508 33.9207 8.09531C33.8635 7.68127 33.735 7.32433 33.5352 7.02451C33.3496 6.71041 33.0711 6.46769 32.6999 6.29636C32.3287 6.11076 31.829 6.01795 31.2008 6.01795C30.5298 6.01795 29.9801 6.10362 29.5518 6.27495C29.1377 6.44628 28.8094 6.69613 28.5666 7.02451C28.3239 7.35289 28.1526 7.75265 28.0527 8.22381C27.9527 8.69496 27.8956 9.22322 27.8813 9.8086L34.0063 9.35886ZM44.6099 4.49742C45.5808 4.49742 46.3732 4.64733 46.9871 4.94715C47.6153 5.2327 48.1008 5.6396 48.4434 6.16787C48.8003 6.69613 49.0431 7.33147 49.1716 8.0739C49.3143 8.80204 49.3857 9.60871 49.3857 10.4939C49.3857 11.2934 49.3143 12.0573 49.1716 12.7854C49.0431 13.4993 48.8003 14.1346 48.4434 14.6915C48.1008 15.234 47.6153 15.6695 46.9871 15.9978C46.3732 16.3262 45.5808 16.4904 44.6099 16.4904C43.482 16.4904 42.6325 16.2905 42.0614 15.8908C41.5046 15.491 41.1048 14.9484 40.8621 14.2631V20.5595H39.0203V4.71158H40.8621V6.78893C41.1048 6.10362 41.5117 5.55394 42.0828 5.1399C42.6539 4.71158 43.4963 4.49742 44.6099 4.49742ZM44.3744 14.927C45.0597 14.927 45.6022 14.8057 46.002 14.563C46.416 14.306 46.7301 13.9704 46.9443 13.5564C47.1584 13.1424 47.2941 12.6712 47.3512 12.1429C47.4226 11.6004 47.4583 11.0507 47.4583 10.4939C47.4583 9.87998 47.4226 9.30889 47.3512 8.78062C47.2798 8.23809 47.137 7.76693 46.9229 7.36717C46.7087 6.95312 46.3946 6.63188 45.9806 6.40344C45.5808 6.16073 45.0454 6.03937 44.3744 6.03937C43.6748 6.03937 43.0965 6.14645 42.6397 6.36061C42.1828 6.56049 41.8116 6.85318 41.526 7.23867C41.2548 7.62416 41.062 8.09531 40.9478 8.65213C40.8336 9.19467 40.7765 9.8086 40.7765 10.4939C40.7765 11.1649 40.8336 11.7717 40.9478 12.3143C41.062 12.8568 41.2548 13.3208 41.526 13.7063C41.8116 14.0918 42.1828 14.3916 42.6397 14.6058C43.0965 14.82 43.6748 14.927 44.3744 14.927ZM55.2915 16.4047C55.006 16.4047 54.699 16.3905 54.3706 16.3619C54.0565 16.3476 53.7424 16.3262 53.4283 16.2977C53.1142 16.2691 52.8215 16.2334 52.5503 16.1906C52.2933 16.1335 52.0863 16.0835 51.9292 16.0407V14.4559C52.1291 14.513 52.3647 14.5701 52.6359 14.6272C52.9215 14.6843 53.2142 14.7343 53.514 14.7771C53.8138 14.82 54.1136 14.8556 54.4135 14.8842C54.7276 14.8985 55.0131 14.9056 55.2701 14.9056C56.1553 14.9056 56.8192 14.7843 57.2618 14.5415C57.7187 14.2846 57.9471 13.8134 57.9471 13.1281C57.9471 12.7854 57.9114 12.507 57.84 12.2929C57.7829 12.0644 57.6616 11.8788 57.476 11.736C57.2904 11.579 57.0262 11.4434 56.6836 11.3291C56.3552 11.2149 55.9126 11.0936 55.3558 10.9651C54.7133 10.8223 54.185 10.6581 53.771 10.4725C53.3569 10.2869 53.0286 10.0656 52.7858 9.8086C52.5431 9.5516 52.3718 9.24464 52.2719 8.88771C52.1719 8.53077 52.1219 8.10959 52.1219 7.62416C52.1219 6.68185 52.4646 5.92515 53.1499 5.35406C53.8495 4.78296 54.8918 4.49742 56.2767 4.49742C56.8335 4.49742 57.3832 4.53311 57.9257 4.6045C58.4825 4.67588 58.9037 4.76869 59.1892 4.8829L59.0607 6.44628C58.7324 6.31778 58.3255 6.2107 57.84 6.12503C57.3546 6.03937 56.8406 5.99654 56.2981 5.99654C55.4843 5.99654 54.8703 6.11076 54.4563 6.3392C54.0565 6.56763 53.8566 7.01023 53.8566 7.66699C53.8566 7.96682 53.8852 8.20953 53.9423 8.39514C54.0137 8.58074 54.1279 8.74493 54.285 8.88771C54.442 9.0162 54.6633 9.13042 54.9489 9.23036C55.2344 9.31603 55.6056 9.40883 56.0625 9.50877C56.7193 9.66582 57.2761 9.83715 57.733 10.0228C58.2041 10.1941 58.5825 10.4154 58.868 10.6867C59.1536 10.9436 59.3606 11.2649 59.4891 11.6504C59.6176 12.0359 59.6818 12.507 59.6818 13.0638C59.6818 14.2203 59.3035 15.0698 58.5468 15.6123C57.8043 16.1406 56.7193 16.4047 55.2915 16.4047ZM72.0499 9.33744C72.0499 9.49449 72.0356 9.69438 72.0071 9.93709C71.9928 10.1655 71.9714 10.4154 71.9428 10.6867L64.1046 11.1792C64.1046 11.8074 64.1688 12.3571 64.2973 12.8283C64.4258 13.2851 64.6328 13.6635 64.9184 13.9633C65.2039 14.2631 65.5823 14.4916 66.0534 14.6486C66.5246 14.7914 67.11 14.8628 67.8095 14.8628C68.452 14.8628 69.1016 14.7914 69.7584 14.6486C70.4294 14.5058 70.9863 14.3274 71.4289 14.1132V15.8051C71.2575 15.8908 71.0362 15.9764 70.765 16.0621C70.4937 16.1477 70.1867 16.2191 69.8441 16.2762C69.5014 16.3476 69.1302 16.3976 68.7304 16.4262C68.3449 16.469 67.9452 16.4904 67.5311 16.4904C66.6745 16.4904 65.9107 16.3976 65.2396 16.212C64.5829 16.0121 64.026 15.6837 63.5692 15.2269C63.1123 14.7557 62.7625 14.1418 62.5198 13.3851C62.2913 12.6141 62.1771 11.6504 62.1771 10.4939C62.1771 9.33744 62.2913 8.38086 62.5198 7.62416C62.7625 6.85318 63.1051 6.23925 63.5477 5.78238C64.0046 5.31123 64.5543 4.98285 65.1968 4.79724C65.8535 4.59736 66.596 4.49742 67.4241 4.49742C68.4092 4.49742 69.2016 4.64733 69.8012 4.94715C70.4152 5.2327 70.8863 5.61105 71.2147 6.0822C71.5431 6.53908 71.7644 7.0602 71.8786 7.64557C71.9928 8.21667 72.0499 8.78063 72.0499 9.33744ZM70.2296 9.35886C70.2296 8.91626 70.201 8.49508 70.1439 8.09531C70.0868 7.68127 69.9583 7.32433 69.7584 7.02451C69.5728 6.71041 69.2944 6.46769 68.9232 6.29636C68.552 6.11076 68.0523 6.01795 67.4241 6.01795C66.753 6.01795 66.2033 6.10362 65.775 6.27495C65.361 6.44628 65.0326 6.69613 64.7899 7.02451C64.5472 7.35289 64.3758 7.75265 64.2759 8.22381C64.176 8.69496 64.1188 9.22322 64.1046 9.8086L70.2296 9.35886ZM84.4311 9.33744C84.4311 9.49449 84.4168 9.69438 84.3882 9.93709C84.374 10.1655 84.3525 10.4154 84.324 10.6867L76.4857 11.1792C76.4857 11.8074 76.55 12.3571 76.6785 12.8283C76.807 13.2851 77.014 13.6635 77.2995 13.9633C77.5851 14.2631 77.9634 14.4916 78.4346 14.6486C78.9057 14.7914 79.4911 14.8628 80.1907 14.8628C80.8332 14.8628 81.4828 14.7914 82.1396 14.6486C82.8106 14.5058 83.3674 14.3274 83.81 14.1132V15.8051C83.6387 15.8908 83.4174 15.9764 83.1461 16.0621C82.8748 16.1477 82.5679 16.2191 82.2252 16.2762C81.8826 16.3476 81.5114 16.3976 81.1116 16.4262C80.7261 16.469 80.3263 16.4904 79.9123 16.4904C79.0556 16.4904 78.2918 16.3976 77.6208 16.212C76.964 16.0121 76.4072 15.6837 75.9503 15.2269C75.4934 14.7557 75.1436 14.1418 74.9009 13.3851C74.6725 12.6141 74.5583 11.6504 74.5583 10.4939C74.5583 9.33744 74.6725 8.38086 74.9009 7.62416C75.1436 6.85318 75.4863 6.23925 75.9289 5.78238C76.3858 5.31123 76.9355 4.98285 77.5779 4.79724C78.2347 4.59736 78.9771 4.49742 79.8052 4.49742C80.7903 4.49742 81.5827 4.64733 82.1824 4.94715C82.7963 5.2327 83.2675 5.61105 83.5958 6.0822C83.9242 6.53908 84.1455 7.0602 84.2597 7.64557C84.374 8.21667 84.4311 8.78063 84.4311 9.33744ZM82.6107 9.35886C82.6107 8.91626 82.5822 8.49508 82.525 8.09531C82.4679 7.68127 82.3394 7.32433 82.1396 7.02451C81.954 6.71041 81.6755 6.46769 81.3043 6.29636C80.9331 6.11076 80.4334 6.01795 79.8052 6.01795C79.1342 6.01795 78.5845 6.10362 78.1562 6.27495C77.7421 6.44628 77.4137 6.69613 77.171 7.02451C76.9283 7.35289 76.757 7.75265 76.657 8.22381C76.5571 8.69496 76.5 9.22322 76.4857 9.8086L82.6107 9.35886ZM96.6837 16.2762H94.3065L90.0876 10.8794H89.4665V16.2762H87.6247V4.41923e-05H89.4665V9.44452H90.1304L94.1352 4.71158H96.4267L91.5653 10.087L96.6837 16.2762ZM98.3023 8.93054H104.62V10.4725H98.3023V8.93054ZM112.81 16.4904C111.954 16.4904 111.19 16.3976 110.519 16.212C109.862 16.0121 109.305 15.6837 108.848 15.2269C108.391 14.7557 108.042 14.1418 107.799 13.3851C107.57 12.6141 107.456 11.6504 107.456 10.4939C107.456 9.33744 107.57 8.38086 107.799 7.62416C108.042 6.85318 108.391 6.23925 108.848 5.78238C109.305 5.31123 109.862 4.98285 110.519 4.79724C111.19 4.59736 111.954 4.49742 112.81 4.49742C113.453 4.49742 114.031 4.54025 114.545 4.62591C115.073 4.71158 115.501 4.81152 115.83 4.92574V6.6176C115.402 6.46055 114.945 6.3392 114.459 6.25353C113.974 6.15359 113.431 6.10362 112.832 6.10362C112.189 6.10362 111.654 6.17501 111.225 6.31778C110.797 6.46055 110.447 6.70327 110.176 7.04592C109.905 7.3743 109.712 7.82404 109.598 8.39514C109.484 8.95195 109.426 9.65868 109.426 10.5153C109.426 11.3577 109.484 12.0573 109.598 12.6141C109.712 13.1709 109.905 13.6207 110.176 13.9633C110.447 14.2917 110.797 14.5273 111.225 14.67C111.668 14.7985 112.211 14.8628 112.853 14.8628C113.396 14.8628 113.931 14.8271 114.459 14.7557C114.987 14.67 115.459 14.5415 115.873 14.3702V16.0621C115.716 16.1192 115.516 16.1763 115.273 16.2334C115.045 16.2762 114.788 16.3191 114.502 16.3619C114.231 16.4047 113.945 16.4333 113.645 16.4476C113.36 16.4761 113.081 16.4904 112.81 16.4904ZM124.334 4.49742C125.09 4.49742 125.718 4.59022 126.218 4.77582C126.718 4.96143 127.11 5.22556 127.396 5.56822C127.696 5.8966 127.903 6.28922 128.017 6.7461C128.146 7.20298 128.21 7.70982 128.21 8.26664V16.2762H126.368V8.95195C126.368 8.50936 126.339 8.11673 126.282 7.77407C126.225 7.41714 126.111 7.12445 125.94 6.89601C125.783 6.6533 125.554 6.46769 125.254 6.3392C124.969 6.2107 124.598 6.14645 124.141 6.14645C123.77 6.14645 123.405 6.17501 123.049 6.23212C122.706 6.27495 122.378 6.38203 122.063 6.55336C121.764 6.71041 121.485 6.93884 121.228 7.23867C120.985 7.53849 120.786 7.9454 120.629 8.45938V16.2762H118.787V4.41923e-05H120.629V6.36061C120.8 5.9894 121.021 5.68244 121.292 5.43972C121.578 5.19701 121.885 5.0114 122.213 4.8829C122.542 4.74013 122.884 4.64019 123.241 4.58308C123.613 4.52597 123.977 4.49742 124.334 4.49742ZM136.608 4.49742C137.522 4.49742 138.272 4.59022 138.857 4.77582C139.457 4.94715 139.928 5.18987 140.271 5.50397C140.628 5.81807 140.87 6.19642 140.999 6.63902C141.141 7.08162 141.213 7.55991 141.213 8.0739V16.2762H139.65L139.371 14.5201C139.2 14.8342 138.971 15.1126 138.686 15.3554C138.4 15.5981 138.072 15.8051 137.701 15.9764C137.344 16.1477 136.951 16.2762 136.523 16.3619C136.094 16.4476 135.666 16.4904 135.238 16.4904C133.853 16.4904 132.839 16.1906 132.197 15.5909C131.569 14.9913 131.254 14.1418 131.254 13.0424C131.254 12.3571 131.362 11.7789 131.576 11.3077C131.804 10.8366 132.118 10.4582 132.518 10.1727C132.918 9.88712 133.396 9.6801 133.953 9.5516C134.524 9.42311 135.152 9.35886 135.837 9.35886H139.371V8.39514C139.371 8.05248 139.328 7.73838 139.243 7.45283C139.171 7.15301 139.028 6.90315 138.814 6.70327C138.614 6.48911 138.329 6.32492 137.958 6.2107C137.586 6.09648 137.108 6.03937 136.523 6.03937C136.137 6.03937 135.716 6.06079 135.259 6.10362C134.817 6.14645 134.388 6.2107 133.974 6.29636V4.66874C134.403 4.61163 134.845 4.5688 135.302 4.54025C135.759 4.51169 136.194 4.49742 136.608 4.49742ZM135.409 14.9484C136.38 14.9484 137.208 14.7557 137.893 14.3702C138.579 13.9704 139.071 13.4279 139.371 12.7426V10.8366H135.966C135.495 10.8366 135.081 10.8651 134.724 10.9222C134.367 10.9793 134.074 11.0936 133.846 11.2649C133.617 11.4219 133.446 11.6432 133.332 11.9288C133.218 12.2143 133.16 12.5784 133.16 13.021C133.16 13.6635 133.332 14.1489 133.674 14.4773C134.017 14.7914 134.595 14.9484 135.409 14.9484ZM148.736 14.8628C148.993 14.8628 149.215 14.8556 149.4 14.8414C149.6 14.8128 149.8 14.7771 150 14.7343V16.2977C149.772 16.3262 149.557 16.3476 149.358 16.3619C149.158 16.3905 148.936 16.4047 148.694 16.4047C148.051 16.4047 147.509 16.3619 147.066 16.2762C146.638 16.1763 146.281 15.9907 145.995 15.7194C145.724 15.4482 145.524 15.0769 145.396 14.6058C145.281 14.1204 145.224 13.4993 145.224 12.7426V6.25353H143.511V4.71158H145.224V1.97032H147.066V4.71158H149.936V6.25353H147.066V12.6355C147.066 13.0924 147.087 13.4636 147.13 13.7491C147.173 14.0347 147.252 14.2631 147.366 14.4345C147.494 14.5915 147.666 14.7057 147.88 14.7771C148.094 14.8342 148.38 14.8628 148.736 14.8628Z" fill="#686868"/>
</svg>
