<svg width="48" height="23" viewBox="0 0 48 23" fill="none" xmlns="http://www.w3.org/2000/svg">
<path d="M19.691 0.0251292L21.4329 0.0756183V19.186C21.4329 19.8929 21.3319 20.4482 21.13 20.8522C20.9448 21.2729 20.6082 21.5927 20.1202 21.8115C19.6321 22.0303 18.9421 22.1649 18.0501 22.2154L16.7626 22.2911L16.2072 20.6502L17.7724 20.5492C18.3614 20.5156 18.7822 20.4651 19.0346 20.3978C19.3039 20.3304 19.4806 20.2126 19.5648 20.0443C19.6489 19.876 19.691 19.6067 19.691 19.2365V0.0251292ZM14.0866 1.03493V9.5677H15.4751V11.2339H14.0866V19.4132C14.0866 20.3388 13.9099 20.97 13.5565 21.3066C13.2199 21.66 12.6056 21.8788 11.7136 21.9629L10.8805 22.0387L10.3504 20.322L11.3097 20.221C11.6295 20.1874 11.8651 20.1285 12.0166 20.0443C12.168 19.9602 12.269 19.8171 12.3195 19.6152C12.37 19.4132 12.3952 19.085 12.3952 18.6306L12.4205 11.2339H10.4514C10.4346 13.203 10.3588 14.827 10.2242 16.1061C10.1064 17.3684 9.91282 18.4791 9.64354 19.4384C9.37426 20.3809 8.98718 21.3823 8.48228 22.4426L6.9171 21.8115C7.42199 20.7512 7.80067 19.7919 8.05312 18.9335C8.32239 18.0752 8.50752 17.0654 8.6085 15.9042C8.72631 14.7429 8.80205 13.1861 8.83571 11.2339H7.19479V19.1355C7.19479 19.775 7.12747 20.2631 6.99283 20.5997C6.87502 20.9531 6.65623 21.214 6.33646 21.3823C6.03353 21.5506 5.57912 21.66 4.97324 21.7105L4.11491 21.7862L3.63526 20.0696L4.51883 19.9686C4.95641 19.9349 5.24252 19.8424 5.37716 19.6909C5.5118 19.5394 5.57912 19.1944 5.57912 18.6559V11.2339H3.73624C3.71941 13.2534 3.63526 14.886 3.48379 16.1314C3.34915 17.3768 3.13036 18.4539 2.82742 19.3627C2.54132 20.2547 2.11215 21.2561 1.53994 22.3669L-2.32005e-06 21.6095C0.555385 20.5324 0.967718 19.5899 1.237 18.7821C1.52311 17.9742 1.72506 17.0065 1.84287 15.8789C1.97751 14.7345 2.06166 13.1861 2.09532 11.2339H0.252447V9.5677H2.09532V9.31525V1.03493H7.19479V9.5677H8.83571V9.31525V1.03493H14.0866ZM16.182 2.29717L17.8734 2.34766V16.6615H16.182V2.29717ZM3.73624 2.72633V9.5677H5.57912V2.72633H3.73624ZM10.4514 2.72633V9.5677H12.4205L12.4457 2.72633H10.4514ZM46.0814 13.6069H40.6032V19.6404C40.6032 20.3136 40.5023 20.8185 40.3003 21.1551C40.1152 21.5085 39.8122 21.761 39.3915 21.9124C38.9707 22.0639 38.3564 22.1817 37.5486 22.2659L36.5893 22.3669L36.0087 20.5492L37.1699 20.4482C37.6412 20.3978 37.9862 20.3304 38.205 20.2463C38.4406 20.1621 38.6005 20.0275 38.6846 19.8424C38.7688 19.6572 38.8109 19.3711 38.8109 18.984V13.6069H33.5852V11.7388H38.8109V8.7851H35.3018V7.29566C34.6286 7.95202 33.8376 8.60839 32.9288 9.26476L31.717 7.72482C34.8979 5.57059 37.2625 2.99561 38.8109 -0.000115343H40.7295C41.47 1.32945 42.4798 2.65901 43.7588 3.98858C45.0379 5.31814 46.4516 6.52148 48 7.59859L46.7882 9.23951C45.0884 7.79214 43.6831 6.48782 42.5723 5.32655C41.4616 4.14846 40.5443 2.94512 39.8206 1.71654C38.6594 3.70247 37.2373 5.48644 35.5543 7.06845H44.0618V8.7851H40.6032V11.7388H46.0814V13.6069ZM30.0509 18.4287L29.1421 18.5801L28.5867 16.813L29.7227 16.712C30.2781 16.6447 30.6483 16.4511 30.8335 16.1314C31.0354 15.8116 31.1364 15.2141 31.1364 14.339C31.1364 12.7401 30.5053 11.0319 29.243 9.21427L31.0859 3.07976H28.0565V22.6698H26.3399V1.31262H32.8783V3.105L30.9849 8.96182C31.6413 10.0558 32.1125 11.0487 32.3987 11.9407C32.6848 12.8327 32.8278 13.7415 32.8278 14.6672C32.8278 15.6265 32.7352 16.3586 32.5501 16.8635C32.365 17.3684 32.0789 17.7302 31.6918 17.949C31.3215 18.1678 30.7746 18.3277 30.0509 18.4287ZM37.0437 15.3235C36.3873 16.5016 35.6637 17.6461 34.8726 18.7568C34.0985 19.8508 33.3327 20.7848 32.5754 21.559L31.1364 20.322C31.9442 19.5815 32.7352 18.6811 33.5094 17.6208C34.2836 16.5605 34.94 15.5087 35.4785 14.4652L37.0437 15.3235ZM43.052 14.5409C43.6242 15.1805 44.3479 16.1061 45.2231 17.3179C46.115 18.5296 46.7966 19.5226 47.2679 20.2968L45.9047 21.5085C45.4503 20.6502 44.8023 19.6236 43.9608 18.4287C43.1193 17.2169 42.404 16.2913 41.815 15.6517L43.052 14.5409Z" fill="#484848"/>
</svg>
