<svg width="148" height="21" viewBox="0 0 148 21" fill="none" xmlns="http://www.w3.org/2000/svg">
<path d="M10.3608 4.78511V15.5091C10.3608 17.1042 9.90508 18.3503 8.99361 19.2475C8.09639 20.1447 6.67222 20.5934 4.72111 20.5934C4.22265 20.5934 3.7242 20.5649 3.22574 20.5079C2.72728 20.4509 2.29291 20.3869 1.92263 20.3156V18.7562C2.79137 18.9271 3.73132 19.0125 4.74247 19.0125C6.02422 19.0125 6.97129 18.7277 7.58369 18.158C8.21032 17.5884 8.52364 16.6413 8.52364 15.3168V14.1632C8.28153 14.8468 7.87564 15.3809 7.30597 15.7654C6.73631 16.1357 5.89605 16.3209 4.7852 16.3209C3.81677 16.3209 3.02635 16.1784 2.41396 15.8936C1.80157 15.6088 1.31023 15.21 0.939951 14.6973C0.583909 14.1846 0.33468 13.5722 0.192264 12.8601C0.0640888 12.1338 1.3115e-06 11.3292 1.3115e-06 10.4462C1.3115e-06 9.64864 0.0640888 8.89383 0.192264 8.18175C0.33468 7.46967 0.583909 6.85015 0.939951 6.32321C1.31023 5.78203 1.80157 5.35478 2.41396 5.04146C3.02635 4.72815 3.81677 4.57149 4.7852 4.57149C5.36911 4.57149 5.86757 4.63558 6.28057 4.76375C6.70782 4.87768 7.06386 5.04146 7.3487 5.25509C7.64777 5.45447 7.88988 5.7037 8.07502 6.00278C8.26016 6.28761 8.4097 6.60093 8.52364 6.94273V4.78511H10.3608ZM5.04155 14.7828C5.73939 14.7828 6.31618 14.6902 6.77191 14.505C7.22764 14.3057 7.59081 14.0208 7.8614 13.6505C8.13199 13.2803 8.31713 12.8245 8.41682 12.2833C8.53076 11.7422 8.58772 11.1298 8.58772 10.4462C8.58772 9.79106 8.53076 9.19291 8.41682 8.65172C8.31713 8.11054 8.13199 7.65481 7.8614 7.28453C7.59081 6.91424 7.22764 6.62941 6.77191 6.43003C6.31618 6.2164 5.73939 6.10959 5.04155 6.10959C4.34371 6.10959 3.78828 6.23064 3.37527 6.47275C2.97651 6.71486 2.67031 7.0353 2.45669 7.43406C2.24306 7.83283 2.10777 8.29568 2.0508 8.82262C1.99383 9.34957 1.96535 9.89075 1.96535 10.4462C1.96535 11.0443 1.99383 11.6069 2.0508 12.1338C2.12201 12.6608 2.26443 13.1236 2.47805 13.5224C2.69168 13.9069 2.99787 14.2131 3.39664 14.441C3.80965 14.6688 4.35795 14.7828 5.04155 14.7828ZM23.4078 9.39941C23.4078 9.55607 23.3935 9.75545 23.3651 9.99756C23.3508 10.2254 23.3295 10.4747 23.301 10.7452L15.4823 11.2366C15.4823 11.8632 15.5464 12.4115 15.6746 12.8815C15.8027 13.3372 16.0092 13.7146 16.2941 14.0137C16.5789 14.3128 16.9563 14.5407 17.4263 14.6973C17.8963 14.8397 18.4802 14.9109 19.178 14.9109C19.8189 14.9109 20.4669 14.8397 21.122 14.6973C21.7914 14.5549 22.3468 14.3769 22.7883 14.1632V15.8509C22.6174 15.9363 22.3966 16.0218 22.126 16.1072C21.8554 16.1927 21.5492 16.2639 21.2074 16.3209C20.8656 16.3921 20.4954 16.4419 20.0966 16.4704C19.7121 16.5131 19.3133 16.5345 18.9003 16.5345C18.0458 16.5345 17.2839 16.4419 16.6145 16.2568C15.9594 16.0574 15.404 15.7298 14.9482 15.2741C14.4925 14.8041 14.1436 14.1917 13.9015 13.4369C13.6736 12.6679 13.5597 11.7066 13.5597 10.553C13.5597 9.39941 13.6736 8.44522 13.9015 7.69041C14.1436 6.92136 14.4854 6.30897 14.9269 5.85324C15.3826 5.38326 15.9309 5.05571 16.5718 4.87056C17.2269 4.67118 17.9675 4.57149 18.7935 4.57149C19.7762 4.57149 20.5666 4.72103 21.1647 5.0201C21.7771 5.30493 22.2471 5.68234 22.5746 6.15231C22.9022 6.60805 23.1229 7.12787 23.2369 7.71178C23.3508 8.28144 23.4078 8.84399 23.4078 9.39941ZM21.592 9.42077C21.592 8.97928 21.5635 8.55915 21.5065 8.16039C21.4496 7.74738 21.3214 7.39134 21.122 7.09226C20.9369 6.77895 20.6591 6.53684 20.2889 6.36594C19.9186 6.1808 19.4201 6.08823 18.7935 6.08823C18.1241 6.08823 17.5758 6.17368 17.1486 6.34458C16.7356 6.51548 16.408 6.76471 16.1659 7.09226C15.9238 7.41982 15.7529 7.81859 15.6532 8.28856C15.5535 8.75854 15.4965 9.28548 15.4823 9.86939L21.592 9.42077ZM38.706 4.57149C39.3754 4.57149 39.945 4.66406 40.415 4.8492C40.8992 5.03434 41.2909 5.29781 41.5899 5.63961C41.9033 5.96717 42.1311 6.36594 42.2735 6.83591C42.4159 7.29165 42.4872 7.79723 42.4872 8.35265V16.3209H40.65V9.01489C40.65 8.11766 40.4933 7.42694 40.18 6.94273C39.8809 6.45851 39.297 6.2164 38.4283 6.2164C38.0865 6.2164 37.7589 6.24488 37.4456 6.30185C37.1465 6.35882 36.8688 6.46563 36.6125 6.62229C36.3561 6.7647 36.1283 6.97121 35.9289 7.2418C35.7295 7.49815 35.5657 7.83283 35.4375 8.24584V8.33129V16.3209H33.6004V9.01489C33.6004 8.1319 33.4579 7.4483 33.1731 6.96409C32.8883 6.46563 32.3257 6.2164 31.4855 6.2164C31.1294 6.2164 30.7948 6.24488 30.4814 6.30185C30.1681 6.34458 29.8833 6.44427 29.6269 6.60093C29.3706 6.74334 29.1427 6.95697 28.9433 7.2418C28.744 7.51239 28.5731 7.86843 28.4306 8.30992V16.3209H26.5935V4.78511H28.4306V6.30185C28.7867 5.61825 29.2567 5.16252 29.8406 4.93465C30.4245 4.69254 31.0653 4.57149 31.7632 4.57149C32.6747 4.57149 33.401 4.74239 33.9422 5.08419C34.4833 5.41175 34.875 5.86748 35.1171 6.45139C35.288 6.08111 35.5016 5.77491 35.758 5.5328C36.0286 5.29069 36.3205 5.09843 36.6338 4.95601C36.9614 4.8136 37.2961 4.71391 37.6379 4.65694C37.9939 4.59997 38.35 4.57149 38.706 4.57149ZM47.2061 2.67023C46.7931 2.67023 46.5011 2.60614 46.3302 2.47797C46.1736 2.34979 46.0952 2.05072 46.0952 1.58074C46.0952 1.09652 46.1736 0.797449 46.3302 0.683515C46.5011 0.55534 46.7931 0.491253 47.2061 0.491253C47.5906 0.491253 47.8683 0.55534 48.0392 0.683515C48.2101 0.797449 48.2956 1.09652 48.2956 1.58074C48.2956 2.05072 48.2101 2.34979 48.0392 2.47797C47.8683 2.60614 47.5906 2.67023 47.2061 2.67023ZM46.2661 4.78511H48.1033V16.3209H46.2661V4.78511ZM57.5152 4.57149C58.27 4.57149 58.8966 4.66406 59.3951 4.8492C59.8935 5.03434 60.2852 5.29781 60.57 5.63961C60.8691 5.96717 61.0756 6.35882 61.1895 6.81455C61.3177 7.27028 61.3818 7.77586 61.3818 8.33129V16.3209H59.5232V9.01489C59.5232 8.5734 59.4948 8.18175 59.4378 7.83995C59.3808 7.48391 59.2669 7.19195 59.096 6.96409C58.9393 6.72198 58.7186 6.53684 58.4338 6.40866C58.1489 6.28049 57.7786 6.2164 57.3229 6.2164C56.9526 6.2164 56.5895 6.24488 56.2334 6.30185C55.8916 6.34458 55.5641 6.45139 55.2507 6.62229C54.9517 6.77895 54.674 7.00681 54.4176 7.30589C54.1755 7.60496 53.9761 8.01085 53.8195 8.52355V16.3209H51.9823V4.78511H53.8195V6.43003C53.9904 6.05974 54.2111 5.75355 54.4817 5.51144C54.7665 5.26933 55.0727 5.08419 55.4003 4.95601C55.7278 4.8136 56.0696 4.71391 56.4257 4.65694C56.796 4.59997 57.1591 4.57149 57.5152 4.57149ZM66.1278 2.67023C65.7147 2.67023 65.4228 2.60614 65.2519 2.47797C65.0952 2.34979 65.0169 2.05072 65.0169 1.58074C65.0169 1.09652 65.0952 0.797449 65.2519 0.683515C65.4228 0.55534 65.7147 0.491253 66.1278 0.491253C66.5123 0.491253 66.79 0.55534 66.9609 0.683515C67.1318 0.797449 67.2172 1.09652 67.2172 1.58074C67.2172 2.05072 67.1318 2.34979 66.9609 2.47797C66.79 2.60614 66.5123 2.67023 66.1278 2.67023ZM65.1878 4.78511H67.025V16.3209H65.1878V4.78511ZM70.4981 8.99352H76.8V10.5316H70.4981V8.99352ZM83.1966 16.5345C82.5984 16.5345 82.0145 16.5131 81.4448 16.4704C80.8894 16.4277 80.3625 16.3565 79.864 16.2568V14.5691C80.4337 14.7116 80.982 14.8112 81.5089 14.8682C82.0501 14.9109 82.6055 14.9323 83.1752 14.9323C83.7306 14.9323 84.2433 14.8896 84.7133 14.8041C85.1975 14.7187 85.6105 14.5691 85.9523 14.3555C86.2941 14.1419 86.5647 13.8642 86.7641 13.5224C86.9635 13.1663 87.0632 12.732 87.0632 12.2193C87.0632 11.1654 86.7071 10.4319 85.995 10.0189C85.283 9.60592 84.222 9.39941 82.812 9.39941H81.6371V7.9254H82.7907C84.0867 7.9254 85.0693 7.69041 85.7387 7.22044C86.4081 6.73622 86.7427 6.08823 86.7427 5.27645C86.7427 4.40771 86.4793 3.7882 85.9523 3.41791C85.4396 3.04763 84.6492 2.86249 83.5811 2.86249C83.1538 2.86249 82.6625 2.89809 82.1071 2.9693C81.5516 3.04051 81.0389 3.14732 80.569 3.28974V1.70892C80.9393 1.59498 81.4021 1.49529 81.9575 1.40984C82.5272 1.32439 83.0969 1.28166 83.6665 1.28166C85.2616 1.28166 86.465 1.58786 87.2768 2.20025C88.1028 2.81264 88.5158 3.80244 88.5158 5.16964C88.5158 6.13807 88.2808 6.88576 87.8109 7.4127C87.3409 7.9254 86.7 8.3028 85.8882 8.54491V8.67309C86.9421 8.85823 87.704 9.257 88.174 9.86939C88.6582 10.4675 88.9003 11.2579 88.9003 12.2406C88.9003 13.6078 88.4375 14.6688 87.5118 15.4236C86.6003 16.1642 85.1619 16.5345 83.1966 16.5345ZM92.1943 8.99352H98.4963V10.5316H92.1943V8.99352ZM102.372 4.6783C102.372 3.68139 102.465 2.87673 102.65 2.26434C102.835 1.65195 103.091 1.18197 103.419 0.854416C103.761 0.512616 104.167 0.284749 104.636 0.170816C105.121 0.0568822 105.662 -8.45244e-05 106.26 -8.45244e-05C106.431 -8.45244e-05 106.609 0.0141574 106.794 0.0426412C106.979 0.0568827 107.171 0.0782449 107.371 0.106728V1.58074C107.2 1.55226 107.015 1.53089 106.815 1.51665C106.63 1.48817 106.438 1.47393 106.239 1.47393C105.854 1.47393 105.527 1.52377 105.256 1.62347C105 1.72316 104.793 1.90118 104.636 2.15753C104.494 2.39964 104.387 2.73431 104.316 3.16156C104.245 3.58881 104.209 4.13 104.209 4.78511H106.922V6.30185H104.209V16.3209H102.372V6.30185H100.449V4.78511H102.372V4.6783ZM112.092 14.9109C112.22 14.9109 112.355 14.9038 112.498 14.8896C112.655 14.8753 112.811 14.8468 112.968 14.8041V16.3209C112.797 16.3636 112.612 16.3921 112.412 16.4063C112.227 16.4348 112.007 16.449 111.75 16.449C110.896 16.449 110.255 16.2568 109.828 15.8722C109.4 15.4877 109.187 14.8611 109.187 13.9923V0.0853656H111.024V13.5224C111.024 14.1063 111.109 14.4837 111.28 14.6546C111.451 14.8255 111.722 14.9109 112.092 14.9109ZM119.869 4.57149C120.781 4.57149 121.529 4.66406 122.113 4.8492C122.711 5.0201 123.181 5.26221 123.522 5.57553C123.878 5.88884 124.121 6.26625 124.249 6.70774C124.391 7.14923 124.462 7.62633 124.462 8.13903V16.3209H122.903L122.625 14.5691C122.454 14.8825 122.226 15.1602 121.942 15.4023C121.657 15.6444 121.329 15.8509 120.959 16.0218C120.603 16.1927 120.211 16.3209 119.784 16.4063C119.357 16.4918 118.929 16.5345 118.502 16.5345C117.121 16.5345 116.11 16.2354 115.469 15.6373C114.842 15.0391 114.529 14.1917 114.529 13.0951C114.529 12.4115 114.636 11.8347 114.849 11.3648C115.077 10.8948 115.39 10.5174 115.789 10.2325C116.188 9.94772 116.665 9.74121 117.22 9.61304C117.79 9.48486 118.417 9.42077 119.1 9.42077H122.625V8.45946C122.625 8.11766 122.582 7.80435 122.497 7.51951C122.426 7.22044 122.283 6.97121 122.07 6.77183C121.87 6.5582 121.586 6.39442 121.215 6.28049C120.845 6.16656 120.368 6.10959 119.784 6.10959C119.399 6.10959 118.979 6.13095 118.524 6.17368C118.082 6.2164 117.655 6.28049 117.242 6.36594V4.74239C117.669 4.68542 118.111 4.6427 118.566 4.61421C119.022 4.58573 119.456 4.57149 119.869 4.57149ZM118.673 14.9964C119.642 14.9964 120.468 14.8041 121.151 14.4196C121.835 14.0208 122.326 13.4796 122.625 12.796V10.8948H119.229C118.759 10.8948 118.346 10.9233 117.99 10.9802C117.634 11.0372 117.342 11.1511 117.114 11.322C116.886 11.4787 116.715 11.6994 116.601 11.9843C116.487 12.2691 116.43 12.6323 116.43 13.0738C116.43 13.7146 116.601 14.1989 116.943 14.5264C117.285 14.8397 117.861 14.9964 118.673 14.9964ZM131.049 16.449C130.764 16.449 130.458 16.4348 130.13 16.4063C129.817 16.3921 129.503 16.3707 129.19 16.3422C128.877 16.3137 128.585 16.2781 128.314 16.2354C128.058 16.1784 127.851 16.1286 127.695 16.0859V14.505C127.894 14.562 128.129 14.619 128.4 14.6759C128.684 14.7329 128.976 14.7828 129.275 14.8255C129.575 14.8682 129.874 14.9038 130.173 14.9323C130.486 14.9465 130.771 14.9537 131.027 14.9537C131.91 14.9537 132.572 14.8326 133.014 14.5905C133.47 14.3341 133.697 13.8642 133.697 13.1806C133.697 12.8388 133.662 12.5611 133.591 12.3474C133.534 12.1196 133.413 11.9344 133.228 11.792C133.042 11.6354 132.779 11.5001 132.437 11.3861C132.11 11.2722 131.668 11.1511 131.113 11.023C130.472 10.8805 129.945 10.7168 129.532 10.5316C129.119 10.3465 128.791 10.1257 128.549 9.86939C128.307 9.61304 128.136 9.30684 128.036 8.9508C127.937 8.59476 127.887 8.17463 127.887 7.69041C127.887 6.75046 128.229 5.99565 128.912 5.42599C129.61 4.85632 130.65 4.57149 132.031 4.57149C132.587 4.57149 133.135 4.60709 133.676 4.6783C134.232 4.74951 134.652 4.84208 134.937 4.95601L134.808 6.51548C134.481 6.3873 134.075 6.28049 133.591 6.19504C133.106 6.10959 132.594 6.06686 132.053 6.06686C131.241 6.06686 130.628 6.1808 130.215 6.40866C129.817 6.63653 129.617 7.07802 129.617 7.73314C129.617 8.03221 129.646 8.27432 129.703 8.45946C129.774 8.6446 129.888 8.80838 130.044 8.9508C130.201 9.07897 130.422 9.19291 130.707 9.2926C130.992 9.37805 131.362 9.47062 131.818 9.57031C132.473 9.72697 133.028 9.89787 133.484 10.083C133.954 10.2539 134.331 10.4747 134.616 10.7452C134.901 11.0016 135.107 11.322 135.236 11.7066C135.364 12.0911 135.428 12.5611 135.428 13.1165C135.428 14.2701 135.05 15.1174 134.296 15.6586C133.555 16.1856 132.473 16.449 131.049 16.449ZM144.133 4.57149C144.888 4.57149 145.515 4.66406 146.013 4.8492C146.512 5.03434 146.903 5.29781 147.188 5.63961C147.487 5.96717 147.694 6.35882 147.808 6.81455C147.936 7.27028 148 7.77586 148 8.33129V16.3209H146.163V9.01489C146.163 8.5734 146.134 8.18175 146.077 7.83995C146.02 7.48391 145.906 7.19195 145.736 6.96409C145.579 6.72198 145.351 6.53684 145.052 6.40866C144.767 6.28049 144.397 6.2164 143.941 6.2164C143.571 6.2164 143.208 6.24488 142.852 6.30185C142.51 6.34458 142.182 6.45139 141.869 6.62229C141.57 6.77895 141.292 7.00681 141.036 7.30589C140.794 7.60496 140.594 8.01085 140.438 8.52355V16.3209H138.601V0.0853656H140.438V6.43003C140.609 6.05974 140.829 5.75355 141.1 5.51144C141.385 5.26933 141.691 5.08419 142.019 4.95601C142.346 4.8136 142.688 4.71391 143.044 4.65694C143.414 4.59997 143.777 4.57149 144.133 4.57149Z" fill="#686868"/>
</svg>
