<svg width="339" height="24" viewBox="0 0 339 24" fill="none" xmlns="http://www.w3.org/2000/svg">
<path d="M21.8542 22.6276C20.2742 22.2783 18.8938 21.9124 17.7129 21.5299C16.5321 21.164 15.4427 20.7149 14.4448 20.1827C12.6319 21.0808 10.0456 21.9291 6.686 22.7274L5.86273 21.006C8.8232 20.4571 11.1267 19.8334 12.7733 19.1349C11.3429 18.1037 10.0124 16.7898 8.78162 15.1932H8.03318V13.6464H13.5217V11.6256H8.23277V2.71927C9.51342 2.45316 10.9022 2.02073 12.399 1.42199L13.0227 2.9937C11.8252 3.45939 10.7608 3.81697 9.82942 4.06645V6.21196H12.6984V7.70883H9.82942V10.004H13.5217V0.324285L15.268 0.374181V10.004H19.1599V7.70883H16.1163V6.21196H19.1599V3.91676H16.0165V2.34505H20.7815V11.6256H15.268V13.6464H20.2077V15.1433C18.9603 16.873 17.5882 18.2368 16.0913 19.2347C17.5882 19.8667 19.7337 20.4239 22.5278 20.9062L21.8542 22.6276ZM7.35959 11.6007C6.86064 11.8668 6.33674 12.1246 5.78788 12.3741L5.23903 12.6485V20.0081C5.23903 20.6401 5.16419 21.1224 5.0145 21.455C4.86482 21.7877 4.59871 22.0288 4.21618 22.1785C3.85028 22.3282 3.30974 22.428 2.59457 22.4779L1.57171 22.5777L1.07276 20.8064L2.17046 20.7066C2.73594 20.6567 3.10184 20.5486 3.26816 20.3823C3.45111 20.216 3.54259 19.8917 3.54259 19.4093V13.3969C2.26193 13.979 1.15592 14.4281 0.224533 14.7441L2.96556e-06 12.873C0.798332 12.5903 1.97919 12.1163 3.54259 11.451V6.61112H0.773384V4.88973H3.54259V0.374181L5.23903 0.424076V4.88973H7.45939V6.61112H5.23903V10.6776C6.12052 10.2618 6.75253 9.94581 7.13506 9.72959L7.2598 10.7774L7.35959 11.6007ZM10.7026 15.1932C11.8336 16.5403 13.0394 17.5965 14.32 18.3615C15.5508 17.6297 16.7815 16.5736 18.0123 15.1932H10.7026ZM37.2065 16.1412V19.7586C37.2065 20.4571 37.1067 20.9977 36.9071 21.3802C36.7242 21.7627 36.3998 22.0455 35.9341 22.2284C35.4685 22.428 34.8115 22.5611 33.9633 22.6276L32.7159 22.7274L32.1421 20.9561L33.6389 20.8563C34.3541 20.8064 34.8198 20.6733 35.036 20.4571C35.2689 20.2576 35.3853 19.875 35.3853 19.3095V16.1911C32.4581 16.2742 30.4789 16.3657 29.4477 16.4655C28.5163 16.5653 27.6515 16.6401 26.8532 16.69L26.6037 15.1183C27.6016 15.0518 28.35 14.9437 28.849 14.794C30.8614 14.2119 32.982 13.3304 35.2107 12.1495L29.8718 12.2992C29.1733 12.2992 28.5247 12.3325 27.9259 12.399L27.7014 11.2015C28.0839 11.1682 28.4332 11.135 28.7492 11.1017C29.0652 11.0518 29.323 10.9936 29.5226 10.9271C30.3043 10.5279 31.1608 10.0456 32.0922 9.48012C33.0236 8.91463 33.8635 8.34915 34.6119 7.78367H28.1005V10.5778H26.2544V6.13712H35.1857V3.91676H26.7783V2.29516H35.1857V0.174599L37.0069 0.249443V2.29516H45.4392V3.91676H37.0069V6.13712H45.9382V10.6277H44.0921V7.78367H35.4102L36.0339 8.5321C34.9362 9.38032 33.772 10.162 32.5412 10.8772C34.1379 10.8772 35.8344 10.8439 37.6306 10.7774C38.9445 9.97907 40.0339 9.2639 40.8987 8.63189L41.8967 10.004C38.8198 12.083 35.8926 13.6713 33.115 14.769C34.8614 14.7524 37.8052 14.6609 41.9466 14.4946C41.248 13.9125 40.6243 13.4468 40.0755 13.0975L41.1482 11.9C41.8135 12.3158 42.6534 12.9562 43.668 13.821C44.6991 14.6859 45.4891 15.4094 46.038 15.9915L45.0401 17.4634C44.6908 17.031 44.2251 16.5403 43.643 15.9915C42.8447 16.0081 41.8883 16.0331 40.774 16.0663C39.6763 16.083 38.4871 16.1079 37.2065 16.1412ZM32.4664 18.5611C30.9196 19.6422 28.6494 20.8729 25.6557 22.2534L24.8324 20.6567C26.0299 20.1411 27.2606 19.5507 28.5247 18.8854C29.8053 18.2202 30.8282 17.6048 31.5932 17.0393L32.4664 18.5611ZM39.8509 17.0393C40.7158 17.3387 41.9549 17.8543 43.5682 18.5861C45.1981 19.3179 46.4704 19.9249 47.3852 20.4072L46.5619 22.1785C45.8135 21.6629 44.6492 21.0392 43.0692 20.3074C41.5058 19.5756 40.1669 19.0018 39.0526 18.5861L39.8509 17.0393ZM62.1636 5.86269H60.542V4.24108H57.2738V2.61948H60.542V0.249443L62.1636 0.299338V2.61948H65.9307V0.249443L67.5773 0.299338V2.61948H71.3444V4.24108H67.5773V5.86269H65.9307V4.24108H62.1636V5.86269ZM56.5753 13.4967C56.2094 12.7982 55.6023 11.9084 54.7541 10.8273V22.6775H53.0577V10.4032C52.1762 12.5986 51.2365 14.5112 50.2386 16.1412L48.7666 15.1682C49.5816 13.8876 50.3716 12.4822 51.1367 10.952C51.9018 9.42191 52.5005 7.97493 52.9329 6.61112H49.9142V4.98952H53.0577V0.324285L54.7541 0.374181V4.98952H57.3736V6.61112H54.7541V9.55496L55.2281 9.1059C55.5774 9.42191 56.0015 9.91254 56.5005 10.5778C57.016 11.2265 57.4152 11.7753 57.698 12.2244L56.5753 13.4967ZM65.0825 17.2139C65.6646 18.1786 66.5211 18.9852 67.6521 19.6339C68.7997 20.2659 70.3215 20.7648 72.2176 21.1307L71.5689 22.8771C69.6396 22.3781 68.0596 21.7711 66.8288 21.0559C65.6147 20.3407 64.6667 19.4759 63.9848 18.4613C63.4526 19.426 62.5877 20.2659 61.3902 20.981C60.1927 21.6962 58.5794 22.3282 56.5504 22.8771L55.6522 21.3054C57.6647 20.8563 59.2198 20.2991 60.3175 19.6339C61.4152 18.952 62.1636 18.1453 62.5628 17.2139H56.8248V15.6672H62.937C62.9536 15.6006 62.9619 15.5008 62.9619 15.3678C62.9786 15.1183 62.9869 14.6526 62.9869 13.9707H58.0722V6.38659H69.7976V13.9707H64.7831L64.7332 15.3678V15.6672H71.4192V17.2139H65.0825ZM68.1261 9.50506V7.78367H59.6938V9.50506H68.1261ZM68.1261 10.8023H59.6938V12.5487H68.1261V10.8023ZM90.3889 13.5466L89.7901 11.8502L90.9627 11.7504C91.4616 11.7005 91.8275 11.6339 92.0604 11.5508C92.2932 11.4676 92.4595 11.3263 92.5593 11.1267C92.6758 10.9105 92.734 10.5945 92.734 10.1787V0.673554L94.5302 0.72345V10.6527C94.5302 11.3512 94.4387 11.8834 94.2558 12.2493C94.0728 12.5986 93.7735 12.8564 93.3577 13.0227C92.9419 13.189 92.3265 13.3138 91.5115 13.3969L90.3889 13.5466ZM74.6967 13.8709C75.6614 12.8896 76.3516 12.0497 76.7674 11.3512C77.1998 10.6527 77.4909 9.84602 77.6406 8.93127H74.4972V7.25977H77.7903V6.38659V3.36791H75.2456V1.69641H87.0958V3.36791H84.5511V7.25977H87.5947V8.93127H84.5511V13.5466H82.7798V8.93127H79.4368C79.3038 10.1121 78.9961 11.1267 78.5137 11.9749C78.0481 12.8065 77.2664 13.7628 76.1687 14.8439L74.6967 13.8709ZM88.2933 1.99579L90.0396 2.04568V10.7026H88.2933V1.99579ZM79.5615 3.36791V6.41154V7.25977H82.7798V3.36791H79.5615ZM86.2974 17.164V20.3074H96.2267V21.954H74.2726V20.3074H84.4014V17.164H76.8672V15.4925H84.4014V13.7711L86.2974 13.846V15.4925H93.682V17.164H86.2974ZM118.589 12.4738V22.5527H116.743V21.1307H105.517V22.5527H103.67V14.4198C102.09 15.0019 100.544 15.5175 99.0302 15.9665L98.132 14.2701C102.357 13.0892 105.932 11.7088 108.86 10.1288C111.787 8.5321 114.19 6.68597 116.069 4.59035H106.939C106.939 4.59035 106.648 4.88141 106.065 5.46353L105.616 5.91259C106.198 6.31175 106.83 6.78576 107.512 7.33461C108.194 7.86683 108.735 8.31589 109.134 8.68179L107.862 10.2036C107.496 9.75454 106.972 9.25559 106.29 8.70674C105.608 8.14125 104.918 7.60903 104.219 7.11008C103.105 8.02483 102.007 8.83147 100.926 9.53001L99.7786 7.98325C101.392 6.98534 102.989 5.74627 104.569 4.26603C106.149 2.76917 107.421 1.34714 108.386 -3.47593e-05L110.082 0.748398C109.6 1.44693 109.076 2.14547 108.51 2.84401H118.539V4.59035C117.225 6.18701 115.712 7.63398 113.999 8.93127C112.302 10.2119 110.365 11.3928 108.186 12.4738H118.589ZM105.517 14.2451V19.4592H116.743V14.2451H105.517ZM131.048 9.45517C131.813 8.34083 132.553 6.92713 133.268 5.21405C133.983 3.48434 134.524 1.88768 134.889 0.424076L136.785 0.648606C136.436 1.76294 136.104 2.76085 135.788 3.64234H144.444V5.38868L142.548 9.48012L140.902 8.88137L142.499 5.38868H135.114C134.399 7.21818 133.634 8.84811 132.819 10.2784L131.048 9.45517ZM130.399 15.1183C129.917 14.2368 129.276 13.3221 128.478 12.3741V22.8521H126.781V12.6734C125.9 14.9021 125.027 16.69 124.162 18.0372L122.69 16.9395C123.488 15.8418 124.253 14.5695 124.985 13.1225C125.717 11.6755 126.307 10.2618 126.756 8.88137H123.538V7.15997H126.781V3.94171C125.534 4.15793 124.528 4.29098 123.763 4.34088L123.438 2.66938C124.486 2.60285 125.817 2.4199 127.43 2.12052C129.043 1.82115 130.332 1.53009 131.297 1.24735L131.546 2.91885C130.848 3.13507 129.825 3.37623 128.478 3.64234V7.15997H131.097V8.88137H128.478V11.1267L129.052 10.6277C129.484 11.0601 129.95 11.584 130.449 12.1994C130.948 12.7982 131.339 13.3221 131.621 13.7711L130.399 15.1183ZM137.06 7.35956L138.881 7.4344V19.9332C138.881 20.5652 138.781 21.0559 138.582 21.4051C138.399 21.7544 138.083 22.0122 137.634 22.1785C137.201 22.3448 136.586 22.4613 135.788 22.5278L134.615 22.6276L133.991 20.8563L135.339 20.7565C136.037 20.7066 136.494 20.5736 136.711 20.3573C136.943 20.1578 137.06 19.7919 137.06 19.2596V7.35956ZM135.463 11.3013C134.964 12.898 134.332 14.5362 133.567 16.216C132.802 17.8958 132.029 19.3511 131.247 20.5819L129.501 19.7835C130.349 18.6692 131.164 17.2971 131.946 15.6672C132.727 14.0372 133.343 12.4489 133.792 10.9021L135.463 11.3013ZM141.675 10.9271C142.274 11.9583 142.981 13.3886 143.796 15.2181C144.611 17.0476 145.21 18.5445 145.592 19.7087L144.045 20.6817C143.679 19.4675 143.097 17.9291 142.299 16.0663C141.501 14.1869 140.802 12.7233 140.203 11.6755L141.675 10.9271ZM152.512 17.1391H154.583C154.583 18.1204 154.308 19.2264 153.759 20.4571C153.227 21.7045 152.612 22.7856 151.913 23.7003H150.167C150.865 22.6359 151.431 21.5049 151.863 20.3074C152.296 19.11 152.512 18.0538 152.512 17.1391ZM179.016 11.6755C178.367 11.9749 177.768 12.2327 177.22 12.4489V20.033C177.22 20.6484 177.136 21.1141 176.97 21.4301C176.82 21.7627 176.554 22.0039 176.172 22.1536C175.789 22.3199 175.24 22.428 174.525 22.4779L173.527 22.5777L173.003 20.8064L174.076 20.7066C174.625 20.6567 174.991 20.5486 175.174 20.3823C175.373 20.216 175.473 19.9166 175.473 19.4842V13.1474C173.677 13.8127 172.513 14.2202 171.981 14.3699L171.756 12.4738C172.604 12.241 173.843 11.8252 175.473 11.2265V6.68597H172.554V4.93962H175.473V0.473973L177.22 0.523868V4.93962H179.864V6.68597H177.22V10.5279L178.891 9.82939L178.966 10.952L179.016 11.6755ZM181.161 1.42199H192.064V9.75454H181.161V1.42199ZM190.292 4.83983V2.91885H182.908V4.83983H190.292ZM182.908 6.2868V8.30757H190.292V6.2868H182.908ZM191.041 20.3823C191.889 20.3823 193.128 20.349 194.758 20.2825L194.309 21.9789C193.061 22.0455 191.689 22.0787 190.192 22.0787C189.278 22.0787 188.587 22.0704 188.122 22.0538C186.558 22.0205 185.303 21.7461 184.355 21.2305C183.423 20.7316 182.617 19.8418 181.935 18.5611C181.619 19.3262 181.211 20.0497 180.712 20.7316C180.23 21.4301 179.623 22.1453 178.891 22.8771L177.519 21.7295C178.766 20.532 179.648 19.401 180.163 18.3366C180.679 17.2721 181.045 15.8834 181.261 14.1703L183.007 14.3699C182.891 15.1848 182.741 15.9499 182.558 16.6651C183.007 17.6796 183.481 18.4447 183.98 18.9603C184.496 19.4592 185.136 19.8085 185.901 20.0081V13.1225H179.265V11.5757H194.009V13.1225H187.698V15.6422H192.987V17.1391H187.698V20.2825L188.147 20.3074C189.128 20.3573 190.093 20.3823 191.041 20.3823ZM203.773 0.49892C203.191 2.37832 202.509 4.13298 201.728 5.7629V22.7024H199.906V9.056C199.291 10.0539 198.476 11.2431 197.462 12.6235L196.139 11.3013C197.287 9.90423 198.385 8.20778 199.432 6.21196C200.48 4.21614 201.312 2.17874 201.927 0.099755L203.773 0.49892ZM215.1 6.76081V13.0227H219.041V14.8439H202.726V13.0227H206.617V6.76081H203.823V5.01447H206.617V0.349234L208.488 0.424076V5.01447H213.278V0.349234L215.1 0.424076V5.01447H218.193V6.76081H215.1ZM213.278 6.76081H208.488V13.0227H213.278V6.76081ZM202.75 21.3303C203.699 20.665 204.688 19.8168 205.719 18.7856C206.75 17.7378 207.607 16.7565 208.289 15.8418L209.661 17.0393C208.946 17.9208 208.064 18.8937 207.017 19.9582C205.969 21.006 204.996 21.9207 204.098 22.7024L202.75 21.3303ZM213.328 15.8917C214.01 16.4738 214.883 17.3303 215.948 18.4613C217.029 19.5923 217.877 20.5403 218.493 21.3054L217.32 22.7773C216.804 22.0122 216.031 21.0891 215 20.0081C213.969 18.9104 213.012 17.9624 212.131 17.164L213.328 15.8917ZM243.624 4.41572H237.836L236.839 7.4843H241.653V19.9332C241.637 20.5985 241.562 21.0808 241.429 21.3802C241.312 21.6962 241.071 21.9207 240.705 22.0538C240.356 22.2035 239.782 22.3116 238.984 22.3781L237.263 22.5278L236.714 20.8563L238.71 20.6817C239.075 20.6484 239.333 20.5902 239.483 20.507C239.649 20.4405 239.757 20.3241 239.807 20.1578C239.857 19.9748 239.89 19.6838 239.907 19.2846V9.13085H225.238V22.453H223.516V7.4843H228.281C227.932 6.20364 227.624 5.18078 227.358 4.41572H221.67V2.71927H231.974C231.741 1.97084 231.491 1.23904 231.225 0.523868L233.071 0.174599C233.254 0.607027 233.554 1.45525 233.97 2.71927H243.624V4.41572ZM234.918 7.4843L235.965 4.41572H229.18C229.612 5.77953 229.911 6.80239 230.078 7.4843H234.918ZM236.913 19.8833H228.306V13.4967C227.974 13.7961 227.491 14.1869 226.859 14.6693L225.662 13.4718C226.527 12.8564 227.275 12.2576 227.907 11.6755C228.539 11.0768 229.171 10.3866 229.803 9.60486L231.076 10.7026C230.41 11.5674 229.529 12.4655 228.431 13.3969H236.913V19.8833ZM238.335 14.7441C237.87 14.1952 237.179 13.505 236.265 12.6734C235.367 11.8418 234.643 11.2098 234.094 10.7774L235.217 9.6797C235.816 10.1787 236.564 10.8273 237.462 11.6256C238.377 12.4073 239.017 12.9978 239.383 13.3969L238.335 14.7441ZM235.217 15.0435H230.028V18.2867H235.217V15.0435ZM250.744 17.1391H252.814C252.814 18.1204 252.54 19.2264 251.991 20.4571C251.459 21.7045 250.844 22.7856 250.145 23.7003H248.399C249.097 22.6359 249.663 21.5049 250.095 20.3074C250.528 19.11 250.744 18.0538 250.744 17.1391ZM278.844 2.09558C279.36 2.64443 280.017 3.45107 280.815 4.51551C281.63 5.56332 282.237 6.41986 282.636 7.08513L281.289 8.30757C281.156 8.04146 280.857 7.52587 280.391 6.76081C276.982 6.9105 274.537 7.03524 273.056 7.13503C272.641 7.15166 272.15 7.2265 271.585 7.35956L271.16 5.63816C271.609 5.53837 271.934 5.37205 272.133 5.1392C272.749 4.54046 273.422 3.75045 274.154 2.76917C274.886 1.78789 275.443 0.889768 275.826 0.0748076L277.522 0.898084C277.106 1.62989 276.574 2.43653 275.925 3.31802C275.277 4.18287 274.678 4.93131 274.129 5.56332L279.343 5.239C278.678 4.30761 278.104 3.57581 277.622 3.04359L278.844 2.09558ZM283.51 8.25768V0.374181L285.231 0.424076V4.46561C286.179 4.09971 287.218 3.65066 288.349 3.11844C289.48 2.56958 290.387 2.07894 291.069 1.64652L291.867 3.26812C291.102 3.75045 290.054 4.2993 288.724 4.91467C287.41 5.53005 286.245 5.99574 285.231 6.31175V7.63398C285.231 8.13294 285.314 8.47389 285.48 8.65684C285.647 8.82316 285.971 8.93127 286.453 8.98116C286.886 9.03106 287.31 9.056 287.726 9.056C288.142 9.056 288.557 9.03106 288.973 8.98116C289.539 8.91463 289.929 8.83979 290.146 8.75663C290.362 8.65684 290.512 8.47389 290.595 8.20778C290.728 7.80862 290.811 7.36787 290.844 6.88555C290.877 6.40322 290.894 6.12048 290.894 6.03732L292.591 6.73586L292.466 7.50924C292.449 7.62567 292.408 7.88346 292.341 8.28262C292.275 8.66516 292.191 9.01442 292.092 9.33043C291.992 9.72959 291.742 10.0373 291.343 10.2535C290.961 10.4697 290.362 10.6111 289.547 10.6776C288.898 10.7275 288.241 10.7525 287.576 10.7525C286.927 10.7525 286.262 10.7275 285.58 10.6776C284.865 10.6277 284.341 10.4198 284.008 10.0539C283.676 9.67138 283.51 9.07264 283.51 8.25768ZM272.383 22.5029V8.78158H281.115V20.058C281.115 20.6733 281.04 21.1307 280.89 21.4301C280.74 21.7461 280.483 21.9706 280.117 22.1037C279.767 22.2534 279.227 22.3615 278.495 22.428L277.472 22.5278L276.973 20.7815L278.171 20.6817C278.57 20.665 278.853 20.6151 279.019 20.532C279.202 20.4488 279.31 20.3241 279.343 20.1578C279.393 19.9914 279.418 19.7253 279.418 19.3594V17.6879H274.054V22.5029H272.383ZM279.418 12.5237V10.5778H274.054V12.5237H279.418ZM292.69 17.7877C292.674 17.9208 292.615 18.295 292.516 18.9104C292.433 19.5258 292.316 20.0829 292.166 20.5819C292.033 21.0476 291.759 21.3968 291.343 21.6297C290.927 21.8792 290.295 22.0372 289.447 22.1037C288.815 22.1536 288.191 22.1785 287.576 22.1785C286.961 22.1785 286.337 22.1536 285.705 22.1037C284.957 22.0372 284.399 21.8126 284.033 21.4301C283.684 21.0642 283.51 20.4738 283.51 19.6588V11.6256L285.206 11.6755V15.4676C286.187 15.0684 287.26 14.5695 288.424 13.9707C289.605 13.3553 290.553 12.8148 291.268 12.3491L292.117 13.9957C291.285 14.5279 290.171 15.1349 288.774 15.8168C287.393 16.4821 286.204 16.9894 285.206 17.3387V19.0601C285.206 19.5756 285.306 19.9332 285.505 20.1328C285.722 20.3158 286.096 20.4322 286.628 20.4821C287.027 20.532 287.435 20.5569 287.85 20.5569C288.2 20.5569 288.549 20.532 288.898 20.4821C289.497 20.3989 289.913 20.2908 290.146 20.1578C290.395 20.0081 290.561 19.7586 290.645 19.4093C290.811 18.7441 290.936 17.9956 291.019 17.164L292.69 17.7877ZM274.054 14.1453V16.0913H279.418V14.1453H274.054ZM315.078 5.239C315.028 6.93544 314.945 9.13085 314.828 11.8252C314.712 14.5029 314.612 16.7399 314.529 18.5362C314.479 19.4675 314.304 20.1827 314.005 20.6817C313.706 21.1973 313.215 21.5715 312.533 21.8043C311.851 22.0538 310.878 22.2284 309.614 22.3282L307.643 22.4779L306.995 20.4821L309.415 20.3074C310.296 20.2576 310.945 20.1578 311.361 20.0081C311.776 19.8584 312.076 19.6089 312.259 19.2596C312.442 18.8937 312.55 18.3449 312.583 17.6131C312.65 16.2326 312.724 14.5029 312.808 12.424C312.891 10.3283 312.949 8.59031 312.982 7.20987H305.223C305.124 10.0373 304.799 12.3242 304.25 14.0705C303.718 15.8168 302.862 17.347 301.681 18.6609C300.517 19.9748 298.787 21.4467 296.492 23.0766L295.095 21.455C297.24 19.9914 298.853 18.6775 299.935 17.5133C301.032 16.3324 301.831 14.9686 302.33 13.4219C302.845 11.8585 303.161 9.78781 303.278 7.20987H296.242V5.239H303.327C303.361 4.72341 303.394 3.77539 303.427 2.39495L303.502 0.27439L305.473 0.349234C305.473 0.848189 305.448 1.61325 305.398 2.64443C305.381 3.07686 305.348 3.94171 305.298 5.239H315.078ZM322.347 20.4571C321.765 20.4571 321.349 20.3657 321.1 20.1827C320.867 19.9998 320.75 19.559 320.75 18.8605C320.75 18.1952 320.867 17.7711 321.1 17.5881C321.349 17.4052 321.765 17.3137 322.347 17.3137C322.912 17.3137 323.32 17.4052 323.569 17.5881C323.819 17.7711 323.944 18.1952 323.944 18.8605C323.944 19.559 323.819 19.9998 323.569 20.1827C323.32 20.3657 322.912 20.4571 322.347 20.4571ZM329.875 20.4571C329.293 20.4571 328.877 20.3657 328.628 20.1827C328.395 19.9998 328.278 19.559 328.278 18.8605C328.278 18.1952 328.395 17.7711 328.628 17.5881C328.877 17.4052 329.293 17.3137 329.875 17.3137C330.441 17.3137 330.848 17.4052 331.098 17.5881C331.347 17.7711 331.472 18.1952 331.472 18.8605C331.472 19.559 331.347 19.9998 331.098 20.1827C330.848 20.3657 330.441 20.4571 329.875 20.4571ZM337.403 20.4571C336.821 20.4571 336.405 20.3657 336.156 20.1827C335.923 19.9998 335.807 19.559 335.807 18.8605C335.807 18.1952 335.923 17.7711 336.156 17.5881C336.405 17.4052 336.821 17.3137 337.403 17.3137C337.969 17.3137 338.376 17.4052 338.626 17.5881C338.875 17.7711 339 18.1952 339 18.8605C339 19.559 338.875 19.9998 338.626 20.1827C338.376 20.3657 337.969 20.4571 337.403 20.4571Z" fill="#999999"/>
</svg>
