<svg width="48" height="23" viewBox="0 0 48 23" fill="none" xmlns="http://www.w3.org/2000/svg">
<path d="M15.3668 0.350373C16.201 2.26913 17.3189 4.02939 18.7204 5.63113C20.1219 7.2162 21.6987 8.50093 23.4506 9.48534L22.3243 11.0871C20.6058 9.93583 19.1042 8.65109 17.8194 7.23288C16.5514 5.79798 15.4585 4.18789 14.5409 2.40261C13.6566 4.288 12.7055 5.88975 11.6877 7.20785C10.67 8.50927 9.27678 9.81904 7.50819 11.1371L6.30688 9.76064C8.07547 8.50927 9.51871 7.11609 10.6366 5.58108C11.7712 4.02939 12.7389 2.28582 13.5398 0.350373H15.3668ZM7.93365 0.926001C7.333 2.6946 6.61555 4.42148 5.7813 6.10665V22.7999H3.95431V9.41026C3.13675 10.695 2.27748 11.9297 1.3765 13.1143L-1.63809e-06 12.0131C1.26805 10.4781 2.44433 8.70115 3.52885 6.68228C4.63005 4.66341 5.49766 2.62786 6.13169 0.575619L7.93365 0.926001ZM10.7117 9.41026L12.5387 9.51037V12.864C12.5387 14.5826 12.4135 15.9758 12.1633 17.0436C11.9297 18.1114 11.5126 19.0791 10.9119 19.9467C10.3279 20.7977 9.42695 21.8155 8.20895 23.0001L6.75737 21.8488C7.87526 20.831 8.7095 19.9301 9.2601 19.1459C9.8107 18.3617 10.1861 17.5024 10.3863 16.5681C10.6032 15.6337 10.7117 14.4157 10.7117 12.9141V9.41026ZM18.7454 22.7748H16.8684V9.46031L18.7454 9.56042V22.7748ZM47.9367 11.9881L47.2359 13.6649C44.266 12.814 41.8634 11.7461 40.028 10.4614C38.2928 11.7461 35.9986 12.9141 33.1455 13.9652L32.3196 12.4135C34.8891 11.5125 36.983 10.4864 38.6015 9.33517C37.6838 8.51762 36.8162 7.55824 35.9986 6.45703C35.398 7.30796 34.7556 8.10049 34.0715 8.83463L32.7201 7.68337C33.6711 6.71565 34.5888 5.49765 35.4731 4.02939C36.374 2.54443 37.0331 1.2013 37.4502 -8.65893e-06L39.2772 0.47551C38.9769 1.22633 38.6932 1.8687 38.4263 2.40261H45.4339V4.05441C44.8166 5.15562 44.1909 6.13168 43.5569 6.98261C42.9229 7.81685 42.2138 8.5927 41.4296 9.31015C43.1481 10.428 45.3171 11.3207 47.9367 11.9881ZM32.2195 12.2634C31.7523 11.5793 31.1767 10.8285 30.4926 10.0109V22.5996H28.7657V10.8368C28.065 12.8891 27.139 14.7995 25.9877 16.5681L24.5361 15.3918C25.4538 13.9569 26.238 12.5303 26.8887 11.1121C27.5561 9.67721 28.09 8.16723 28.4904 6.58217H25.6874V4.80523H28.7657V0.30032L30.4926 0.400429V4.80523H33.1205V6.58217H30.4926V8.75955L31.0182 8.30905C31.769 9.07656 32.5699 10.0026 33.4208 11.0871L32.2195 12.2634ZM39.978 8.23397C41.1459 7.16614 42.2555 5.77296 43.3066 4.05441H37.5503C37.5003 4.13784 37.3084 4.45485 36.9747 5.00545C37.8924 6.2735 38.8935 7.34968 39.978 8.23397ZM36.6243 22.7748H34.8724V13.8401H45.0835V22.7748H43.3316V21.3733H36.6243V22.7748ZM43.3316 19.7716V15.4919H36.6243V19.7716H43.3316Z" fill="black"/>
</svg>
