<svg width="136" height="21" viewBox="0 0 136 21" fill="none" xmlns="http://www.w3.org/2000/svg">
<path d="M7.11337 14.4624L5.16362 14.848V19.4974H3.85664V15.0837C2.11401 15.3837 0.892738 15.5765 0.192829 15.6622L-3.80761e-06 14.1624C0.771326 14.0767 2.05687 13.8839 3.85664 13.5839V10.82H0.857029V9.32016C1.24269 8.16317 1.7212 6.49196 2.29256 4.30652H0.449938V2.87099H2.63537C2.8782 1.85684 3.08531 0.899819 3.25672 -6.56488e-05L4.6494 0.321321L4.0709 2.87099H7.45618V4.30652H3.70666C3.17816 6.40625 2.69965 8.10603 2.27113 9.40587H3.85664V6.42768L5.16362 6.47053V9.40587H6.98481V10.82H5.16362V13.3696C5.96351 13.2268 6.57772 13.1054 7.00624 13.0054L7.11337 14.4624ZM13.5197 0.299896C14.1482 1.34262 14.9909 2.32106 16.0479 3.23523C17.1049 4.1494 18.2762 4.93501 19.5618 5.59207L18.7476 6.96332C17.3478 6.09201 16.1551 5.22783 15.1695 4.3708C14.1982 3.51377 13.4054 2.5996 12.7912 1.6283C12.0199 2.82814 10.9914 3.97799 9.70589 5.07785H15.8551V6.38483H9.68446V5.09928C9.19881 5.52779 8.34892 6.18485 7.13479 7.07045L6.17063 5.76348C7.48475 4.96358 8.61317 4.12083 9.55591 3.23523C10.5129 2.34963 11.32 1.37119 11.977 0.299896H13.5197ZM16.605 7.39184L17.9548 7.43469V17.1192C17.9548 17.6619 17.8906 18.0762 17.762 18.3619C17.6334 18.6618 17.3978 18.8761 17.0549 19.0046C16.7121 19.1332 16.2122 19.2117 15.5551 19.2403L14.6124 19.2832L14.1625 17.9119L15.3195 17.8262C15.8622 17.7834 16.2122 17.6905 16.3693 17.5477C16.5264 17.4048 16.605 17.1192 16.605 16.6906V7.39184ZM7.64901 19.2617V7.84178H12.6412V17.4405C12.6412 18.0976 12.5198 18.5475 12.277 18.7904C12.0342 19.0475 11.5842 19.1975 10.9272 19.2403L10.2844 19.2832L9.85587 17.9976L10.5201 17.9119C10.8915 17.8691 11.1343 17.7905 11.2485 17.6762C11.3771 17.562 11.4414 17.3548 11.4414 17.0549V15.2765H8.82743V19.2617H7.64901ZM14.0768 8.09889L15.3409 8.14174V15.7908H14.0768V8.09889ZM11.4414 10.9485V9.06305H8.82743V10.9485H11.4414ZM8.82743 12.1484V14.0338H11.4414V12.1484H8.82743ZM40.46 17.8262L39.1958 19.2617C37.3389 17.8619 35.7677 16.2193 34.4822 14.3338C33.1966 12.4483 32.0253 10.1843 30.9683 7.54182C30.197 9.69869 29.0686 11.7984 27.5831 13.841C26.0975 15.8836 24.3835 17.6405 22.4409 19.1118L21.2196 17.8262C23.3907 16.2264 25.2334 14.3052 26.7474 12.0627C28.2758 9.80582 29.34 7.50611 29.9399 5.16356C29.3828 4.13512 28.6258 3.24952 27.6688 2.50676L26.876 1.92826L27.883 0.749838L28.4401 1.11408C29.04 1.57116 29.5399 2.0211 29.9399 2.4639C30.3541 2.9067 30.7541 3.4852 31.1397 4.19939C31.5397 4.91359 31.9611 5.85632 32.4039 7.0276C33.218 9.14162 34.325 11.1628 35.7249 13.0911C37.1247 15.0051 38.703 16.5835 40.46 17.8262ZM52.0808 13.0911C52.0808 14.4052 51.7523 15.3837 51.0952 16.0264C50.4524 16.6692 49.4311 17.0477 48.0313 17.162V20.333H46.6815V17.1834C45.8387 17.1549 45.0531 17.0977 44.3246 17.012C43.6105 16.912 43.0819 16.7978 42.7391 16.6692V14.998C43.1534 15.1551 43.7104 15.2908 44.4103 15.4051C45.1103 15.5051 45.8673 15.5694 46.6815 15.5979V10.22C45.9816 10.0344 45.3959 9.84867 44.9246 9.66298C44.4532 9.463 44.0675 9.22018 43.7676 8.9345C43.4819 8.64882 43.2748 8.29887 43.1462 7.88463C43.032 7.45612 42.9748 6.92761 42.9748 6.29912C42.9748 5.14213 43.2748 4.24225 43.8747 3.59947C44.4746 2.9567 45.4102 2.59246 46.6815 2.50676V0.514154H48.0313V2.50676C48.3456 2.52104 48.6669 2.54961 48.9955 2.59246C49.3383 2.62103 49.6525 2.65674 49.9382 2.69959C50.2382 2.74244 50.5096 2.79243 50.7524 2.84957C50.9952 2.89242 51.1952 2.94241 51.3523 2.99955V4.58506C50.9952 4.4565 50.5096 4.34223 49.8954 4.24225C49.2811 4.14226 48.6598 4.07798 48.0313 4.04941V8.91307C48.7169 9.08448 49.3169 9.28445 49.8311 9.513C50.3453 9.72725 50.7667 9.99865 51.0952 10.3272C51.4237 10.6414 51.6666 11.0271 51.8237 11.4842C51.9951 11.927 52.0808 12.4626 52.0808 13.0911ZM44.6675 6.29912C44.6675 6.59909 44.6889 6.86334 44.7317 7.09188C44.7746 7.30614 44.8674 7.50611 45.0103 7.6918C45.1531 7.86321 45.3531 8.02033 45.6102 8.16317C45.8816 8.30601 46.2387 8.44171 46.6815 8.57026V4.04941C45.9673 4.09227 45.4531 4.27081 45.1388 4.58506C44.8246 4.88502 44.6675 5.45638 44.6675 6.29912ZM48.0313 15.5551C48.8455 15.4837 49.4383 15.2765 49.8097 14.9337C50.1953 14.5909 50.3881 14.0267 50.3881 13.2411C50.3881 12.8411 50.3524 12.5055 50.281 12.2341C50.2096 11.9627 50.0882 11.727 49.9168 11.527C49.7454 11.327 49.5025 11.1556 49.1883 11.0128C48.8883 10.87 48.5027 10.7271 48.0313 10.5843V15.5551ZM58.6198 17.5905C58.0199 17.5905 57.4771 17.5691 56.9915 17.5262C56.5201 17.4834 56.0416 17.412 55.556 17.312V15.6194C56.113 15.7622 56.613 15.8622 57.0558 15.9193C57.5128 15.9622 58.0271 15.9836 58.5984 15.9836C59.2126 15.9836 59.7697 15.9336 60.2696 15.8336C60.7839 15.7193 61.2195 15.5408 61.5766 15.298C61.9337 15.0409 62.2122 14.7123 62.4122 14.3124C62.6122 13.8981 62.7122 13.3839 62.7122 12.7697C62.7122 11.6556 62.3836 10.8485 61.7266 10.3486C61.0838 9.83438 59.9911 9.57727 58.4484 9.57727C58.0485 9.57727 57.5914 9.61298 57.0772 9.6844C56.563 9.74154 56.0702 9.81296 55.5988 9.89866L56.6058 2.50676H63.5478V4.17797H58.0628L57.4414 8.24887C57.7128 8.20602 57.9842 8.17745 58.2556 8.16317C58.527 8.1346 58.8341 8.12032 59.1769 8.12032C60.9053 8.12032 62.2337 8.47741 63.1621 9.19161C64.0906 9.9058 64.5548 11.0557 64.5548 12.6412C64.5548 13.5268 64.412 14.2838 64.1263 14.9123C63.8549 15.5265 63.4621 16.0336 62.9479 16.4335C62.4336 16.8335 61.8052 17.1263 61.0624 17.312C60.3339 17.4977 59.5197 17.5905 58.6198 17.5905ZM69.2727 17.5048C68.7727 17.5048 68.4156 17.4263 68.2014 17.2691C68.0014 17.112 67.9014 16.7335 67.9014 16.1336C67.9014 15.5622 68.0014 15.198 68.2014 15.0409C68.4156 14.8837 68.7727 14.8052 69.2727 14.8052C69.7583 14.8052 70.1083 14.8837 70.3225 15.0409C70.5368 15.198 70.6439 15.5622 70.6439 16.1336C70.6439 16.7335 70.5368 17.112 70.3225 17.2691C70.1083 17.4263 69.7583 17.5048 69.2727 17.5048ZM78.652 17.5905C77.9092 17.5905 77.2307 17.4834 76.6165 17.2691C76.0023 17.0406 75.4738 16.6406 75.031 16.0693C74.5882 15.4979 74.2454 14.7195 74.0026 13.7339C73.7598 12.734 73.6383 11.4699 73.6383 9.94151C73.6383 8.41314 73.7598 7.15616 74.0026 6.17057C74.2454 5.18498 74.5882 4.40651 75.031 3.83516C75.4738 3.24952 76.0023 2.84957 76.6165 2.63531C77.2307 2.40677 77.9092 2.2925 78.652 2.2925C79.3947 2.2925 80.0732 2.40677 80.6874 2.63531C81.3159 2.84957 81.8516 3.24952 82.2944 3.83516C82.7372 4.40651 83.08 5.18498 83.3228 6.17057C83.5656 7.15616 83.687 8.41314 83.687 9.94151C83.687 11.4699 83.5656 12.734 83.3228 13.7339C83.08 14.7195 82.7372 15.4979 82.2944 16.0693C81.8516 16.6406 81.3159 17.0406 80.6874 17.2691C80.0732 17.4834 79.3947 17.5905 78.652 17.5905ZM78.652 15.9836C79.1805 15.9836 79.6376 15.8979 80.0232 15.7265C80.4089 15.5408 80.7303 15.2194 80.9874 14.7623C81.2445 14.3052 81.4302 13.691 81.5445 12.9197C81.673 12.1341 81.7373 11.1414 81.7373 9.94151C81.7373 8.75595 81.673 7.77751 81.5445 7.00618C81.4302 6.22056 81.2445 5.59921 80.9874 5.14213C80.7303 4.68505 80.4089 4.3708 80.0232 4.19939C79.6376 4.0137 79.1805 3.92086 78.652 3.92086C78.1378 3.92086 77.6878 4.0137 77.3022 4.19939C76.9165 4.3708 76.5951 4.68505 76.338 5.14213C76.0952 5.59921 75.9095 6.22056 75.7809 7.00618C75.6667 7.77751 75.6095 8.75595 75.6095 9.94151C75.6095 11.1414 75.6667 12.1341 75.7809 12.9197C75.9095 13.691 76.0952 14.3052 76.338 14.7623C76.5951 15.2194 76.9165 15.5408 77.3022 15.7265C77.6878 15.8979 78.1378 15.9836 78.652 15.9836ZM90.976 17.5905C90.2332 17.5905 89.5548 17.4834 88.9405 17.2691C88.3263 17.0406 87.7978 16.6406 87.355 16.0693C86.9122 15.4979 86.5694 14.7195 86.3266 13.7339C86.0838 12.734 85.9624 11.4699 85.9624 9.94151C85.9624 8.41314 86.0838 7.15616 86.3266 6.17057C86.5694 5.18498 86.9122 4.40651 87.355 3.83516C87.7978 3.24952 88.3263 2.84957 88.9405 2.63531C89.5548 2.40677 90.2332 2.2925 90.976 2.2925C91.7188 2.2925 92.3972 2.40677 93.0115 2.63531C93.6399 2.84957 94.1756 3.24952 94.6184 3.83516C95.0612 4.40651 95.404 5.18498 95.6468 6.17057C95.8897 7.15616 96.0111 8.41314 96.0111 9.94151C96.0111 11.4699 95.8897 12.734 95.6468 13.7339C95.404 14.7195 95.0612 15.4979 94.6184 16.0693C94.1756 16.6406 93.6399 17.0406 93.0115 17.2691C92.3972 17.4834 91.7188 17.5905 90.976 17.5905ZM90.976 15.9836C91.5045 15.9836 91.9616 15.8979 92.3473 15.7265C92.7329 15.5408 93.0543 15.2194 93.3114 14.7623C93.5685 14.3052 93.7542 13.691 93.8685 12.9197C93.997 12.1341 94.0613 11.1414 94.0613 9.94151C94.0613 8.75595 93.997 7.77751 93.8685 7.00618C93.7542 6.22056 93.5685 5.59921 93.3114 5.14213C93.0543 4.68505 92.7329 4.3708 92.3473 4.19939C91.9616 4.0137 91.5045 3.92086 90.976 3.92086C90.4618 3.92086 90.0118 4.0137 89.6262 4.19939C89.2405 4.3708 88.9191 4.68505 88.662 5.14213C88.4192 5.59921 88.2335 6.22056 88.1049 7.00618C87.9907 7.77751 87.9335 8.75595 87.9335 9.94151C87.9335 11.1414 87.9907 12.1341 88.1049 12.9197C88.2335 13.691 88.4192 14.3052 88.662 14.7623C88.9191 15.2194 89.2405 15.5408 89.6262 15.7265C90.0118 15.8979 90.4618 15.9836 90.976 15.9836ZM104.564 1.86398H106.214L100.45 18.019H98.8006L104.564 1.86398ZM113.713 4.26367L110.028 4.97072V3.40664L114.377 2.50676H115.641V17.3763H113.713V4.26367ZM122.159 2.50676H125.244L129.037 12.0841H129.165L132.958 2.50676H136V17.3763H134.072V4.4565H133.943L130.129 14.0124H128.03L124.173 4.4565H124.044V17.3763H122.159V2.50676Z" fill="#686868"/>
</svg>
