<svg width="145" height="20" viewBox="0 0 145 20" fill="none" xmlns="http://www.w3.org/2000/svg">
<path d="M7.12482 14.4856L5.17193 14.8719V19.5288H3.86285V15.108C2.11741 15.4084 0.894175 15.6016 0.193139 15.6874L-3.81374e-06 14.1852C0.772567 14.0994 2.06018 13.9062 3.86285 13.6058V10.8374H0.858408V9.33516C1.24469 8.17631 1.72397 6.50241 2.29625 4.31345H0.450662V2.87561H2.63961C2.88283 1.85983 3.09028 0.901267 3.26196 -6.57545e-05L4.65688 0.321838L4.07745 2.87561H7.46818V4.31345H3.71263C3.18327 6.41656 2.70399 8.11908 2.27479 9.42101H3.86285V6.43802L5.17193 6.48095V9.42101H6.99605V10.8374H5.17193V13.3912C5.97311 13.2481 6.58831 13.1265 7.01751 13.0263L7.12482 14.4856ZM13.5414 0.300378C14.1709 1.34478 15.0151 2.3248 16.0738 3.24044C17.1325 4.15608 18.3056 4.94296 19.5932 5.60107L18.7778 6.97453C17.3757 6.10181 16.1811 5.23625 15.1939 4.37783C14.221 3.51942 13.427 2.60378 12.8118 1.63092C12.0392 2.83269 11.0091 3.9844 9.72151 5.08603H15.8806V6.3951H9.70005V5.10749C9.21362 5.53669 8.36236 6.19481 7.14628 7.08183L6.18056 5.77275C7.49679 4.97157 8.62704 4.12746 9.57129 3.24044C10.5298 2.35341 11.3382 1.37339 11.9963 0.300378H13.5414ZM16.6317 7.40374L17.9837 7.44666V17.1467C17.9837 17.6904 17.9193 18.1053 17.7906 18.3914C17.6618 18.6919 17.4258 18.9065 17.0824 19.0352C16.739 19.164 16.2383 19.2427 15.5802 19.2713L14.6359 19.3142L14.1853 17.9407L15.3441 17.8549C15.8878 17.812 16.2383 17.719 16.3957 17.5759C16.553 17.4329 16.6317 17.1467 16.6317 16.7175V7.40374ZM7.66132 19.2927V7.8544H12.6616V17.4686C12.6616 18.1267 12.54 18.5774 12.2967 18.8206C12.0535 19.0781 11.6029 19.2284 10.9447 19.2713L10.3009 19.3142L9.87173 18.0266L10.537 17.9407C10.909 17.8978 11.1522 17.8191 11.2667 17.7047C11.3954 17.5902 11.4598 17.3828 11.4598 17.0823V15.3011H8.84164V19.2927H7.66132ZM14.0994 8.11193L15.3656 8.15485V15.8162H14.0994V8.11193ZM11.4598 10.9661V9.07764H8.84164V10.9661H11.4598ZM8.84164 12.1679V14.0564H11.4598V12.1679H8.84164ZM37.1558 16.9321V10.9232L38.8512 10.9876V19.5503H37.1558V18.5202H22.9062V10.9661L24.5801 11.052V16.9321H30.031V9.27078H23.7861V2.0172L25.4385 2.08158V7.68272H30.031V0.128696L31.6405 0.171617V7.68272H36.2759V2.0172L37.9284 2.08158V9.27078H31.6405V16.9321H37.1558ZM51.1131 13.4555H47.7438V12.1035H51.1131V10.4082H47.7438V9.03472H50.4907L46.2416 2.51079H48.3661L51.9929 8.58405H52.1432L55.7485 2.51079H57.7872L53.5381 9.03472H56.3065V10.4082H52.9157V12.1035H56.3065V13.4555H52.9157V17.4042H51.1131V13.4555ZM68.74 17.6188C68.0533 17.6188 67.4095 17.5258 66.8086 17.3399C66.222 17.1396 65.6998 16.8105 65.242 16.3527C64.7985 15.8949 64.4479 15.2868 64.1904 14.5286C63.9329 13.756 63.8041 12.7903 63.8041 11.6314C63.8041 10.2437 63.9544 8.97749 64.2548 7.83294C64.5696 6.68839 65.0488 5.70837 65.6926 4.89288C66.3365 4.06308 67.1591 3.42643 68.1606 2.98292C69.1764 2.5251 70.3853 2.29619 71.7874 2.29619L71.7659 3.92717C70.8503 3.92717 70.0348 4.05593 69.3194 4.31345C68.6041 4.57098 67.9961 4.92865 67.4953 5.38647C66.9946 5.82998 66.6011 6.35934 66.315 6.97453C66.0289 7.57542 65.8572 8.22638 65.7999 8.92742H65.8643C66.1505 8.64128 66.5725 8.36945 67.1305 8.11193C67.6885 7.8401 68.3323 7.70418 69.0619 7.70418C70.4497 7.70418 71.5513 8.09762 72.3668 8.8845C73.1823 9.67138 73.59 10.8803 73.59 12.5113C73.59 13.2409 73.4899 13.9205 73.2896 14.55C73.1036 15.1652 72.8103 15.7017 72.4097 16.1595C72.0234 16.6174 71.5227 16.975 70.9075 17.2326C70.2923 17.4901 69.5698 17.6188 68.74 17.6188ZM68.7185 16.0093C69.7343 16.0093 70.5069 15.7232 71.0363 15.1509C71.5656 14.5643 71.8303 13.6845 71.8303 12.5113C71.8303 11.3954 71.5656 10.5656 71.0363 10.0219C70.5069 9.46393 69.8202 9.18494 68.9761 9.18494C67.8172 9.18494 66.9731 9.46393 66.4438 10.0219C65.9144 10.5656 65.6497 11.2809 65.6497 12.1679C65.6497 14.7289 66.6727 16.0093 68.7185 16.0093ZM78.1653 17.533C77.6645 17.533 77.3069 17.4543 77.0923 17.2969C76.892 17.1396 76.7918 16.7604 76.7918 16.1595C76.7918 15.5873 76.892 15.2224 77.0923 15.0651C77.3069 14.9077 77.6645 14.829 78.1653 14.829C78.6517 14.829 79.0022 14.9077 79.2168 15.0651C79.4314 15.2224 79.5387 15.5873 79.5387 16.1595C79.5387 16.7604 79.4314 17.1396 79.2168 17.2969C79.0022 17.4543 78.6517 17.533 78.1653 17.533ZM87.5597 17.6188C86.8157 17.6188 86.1362 17.5115 85.521 17.2969C84.9058 17.068 84.3764 16.6674 83.9329 16.0952C83.4894 15.5229 83.146 14.7432 82.9028 13.756C82.6596 12.7545 82.538 11.4883 82.538 9.95751C82.538 8.42668 82.6596 7.16767 82.9028 6.1805C83.146 5.19333 83.4894 4.4136 83.9329 3.84133C84.3764 3.25475 84.9058 2.85415 85.521 2.63955C86.1362 2.41064 86.8157 2.29619 87.5597 2.29619C88.3036 2.29619 88.9832 2.41064 89.5984 2.63955C90.2279 2.85415 90.7644 3.25475 91.2079 3.84133C91.6515 4.4136 91.9948 5.19333 92.238 6.1805C92.4812 7.16767 92.6029 8.42668 92.6029 9.95751C92.6029 11.4883 92.4812 12.7545 92.238 13.756C91.9948 14.7432 91.6515 15.5229 91.2079 16.0952C90.7644 16.6674 90.2279 17.068 89.5984 17.2969C88.9832 17.5115 88.3036 17.6188 87.5597 17.6188ZM87.5597 16.0093C88.089 16.0093 88.5469 15.9235 88.9331 15.7518C89.3194 15.5658 89.6413 15.2439 89.8989 14.7861C90.1564 14.3283 90.3424 13.7131 90.4568 12.9405C90.5856 12.1536 90.65 11.1593 90.65 9.95751C90.65 8.77004 90.5856 7.79002 90.4568 7.01745C90.3424 6.23057 90.1564 5.60823 89.8989 5.15041C89.6413 4.69259 89.3194 4.37784 88.9331 4.20615C88.5469 4.02016 88.089 3.92717 87.5597 3.92717C87.0446 3.92717 86.594 4.02016 86.2077 4.20615C85.8214 4.37784 85.4995 4.69259 85.242 5.15041C84.9988 5.60823 84.8128 6.23057 84.684 7.01745C84.5696 7.79002 84.5123 8.77004 84.5123 9.95751C84.5123 11.1593 84.5696 12.1536 84.684 12.9405C84.8128 13.7131 84.9988 14.3283 85.242 14.7861C85.4995 15.2439 85.8214 15.5658 86.2077 15.7518C86.594 15.9235 87.0446 16.0093 87.5597 16.0093ZM99.9036 17.6188C99.1596 17.6188 98.48 17.5115 97.8648 17.2969C97.2496 17.068 96.7203 16.6674 96.2768 16.0952C95.8332 15.5229 95.4899 14.7432 95.2467 13.756C95.0034 12.7545 94.8818 11.4883 94.8818 9.95751C94.8818 8.42668 95.0034 7.16767 95.2467 6.1805C95.4899 5.19333 95.8332 4.4136 96.2768 3.84133C96.7203 3.25475 97.2496 2.85415 97.8648 2.63955C98.48 2.41064 99.1596 2.29619 99.9036 2.29619C100.648 2.29619 101.327 2.41064 101.942 2.63955C102.572 2.85415 103.108 3.25475 103.552 3.84133C103.995 4.4136 104.339 5.19333 104.582 6.1805C104.825 7.16767 104.947 8.42668 104.947 9.95751C104.947 11.4883 104.825 12.7545 104.582 13.756C104.339 14.7432 103.995 15.5229 103.552 16.0952C103.108 16.6674 102.572 17.068 101.942 17.2969C101.327 17.5115 100.648 17.6188 99.9036 17.6188ZM99.9036 16.0093C100.433 16.0093 100.891 15.9235 101.277 15.7518C101.663 15.5658 101.985 15.2439 102.243 14.7861C102.5 14.3283 102.686 13.7131 102.801 12.9405C102.929 12.1536 102.994 11.1593 102.994 9.95751C102.994 8.77004 102.929 7.79002 102.801 7.01745C102.686 6.23057 102.5 5.60823 102.243 5.15041C101.985 4.69259 101.663 4.37784 101.277 4.20615C100.891 4.02016 100.433 3.92717 99.9036 3.92717C99.3885 3.92717 98.9378 4.02016 98.5516 4.20615C98.1653 4.37784 97.8434 4.69259 97.5858 5.15041C97.3426 5.60823 97.1566 6.23057 97.0279 7.01745C96.9134 7.79002 96.8562 8.77004 96.8562 9.95751C96.8562 11.1593 96.9134 12.1536 97.0279 12.9405C97.1566 13.7131 97.3426 14.3283 97.5858 14.7861C97.8434 15.2439 98.1653 15.5658 98.5516 15.7518C98.9378 15.9235 99.3885 16.0093 99.9036 16.0093ZM113.514 1.86698H115.166L109.393 18.048H107.741L113.514 1.86698ZM122.677 4.27053L118.986 4.97872V3.41212L123.342 2.51079H124.609V17.4042H122.677V4.27053ZM131.137 2.51079H134.227L138.025 12.1035H138.154L141.953 2.51079H145V17.4042H143.069V4.46368H142.94L139.12 14.035H137.017L133.154 4.46368H133.025V17.4042H131.137V2.51079Z" fill="#686868"/>
</svg>
