<svg width="294" height="20" viewBox="0 0 294 20" fill="none" xmlns="http://www.w3.org/2000/svg">
<path d="M7.10125 14.4377L5.15482 14.8227V19.4642H3.85007V15.058C2.11041 15.3575 0.891217 15.55 0.1925 15.6355L-3.80112e-06 14.1383C0.770011 14.0527 2.05337 13.8602 3.85007 13.5608V10.8015H0.855568V9.30428C1.24058 8.14926 1.71827 6.48089 2.28865 4.29919H0.449172V2.8661H2.63088C2.87329 1.85367 3.08006 0.898286 3.25117 -6.5537e-05L4.64148 0.320774L4.06396 2.8661H7.44347V4.29919H3.70035C3.17274 6.39534 2.69505 8.09222 2.26726 9.38984H3.85007V6.41673L5.15482 6.45951V9.38984H6.97291V10.8015H5.15482V13.3469C5.95335 13.2043 6.56651 13.0831 6.9943 12.9832L7.10125 14.4377ZM13.4966 0.299385C14.1241 1.34033 14.9654 2.31711 16.0206 3.22972C17.0758 4.14233 18.2451 4.9266 19.5284 5.58254L18.7156 6.95146C17.3182 6.08163 16.1275 5.21892 15.1436 4.36335C14.174 3.50778 13.3826 2.59517 12.7694 1.62552C11.9994 2.82332 10.9727 3.97122 9.68935 5.0692H15.8281V6.37395H9.66796V5.09059C9.18314 5.51838 8.3347 6.17431 7.12263 7.05841L6.16012 5.75366C7.47199 4.95512 8.5985 4.11381 9.53963 3.22972C10.495 2.34563 11.3007 1.36885 11.9566 0.299385H13.4966ZM16.5767 7.37924L17.9242 7.42202V17.09C17.9242 17.6319 17.8601 18.0454 17.7317 18.3306C17.6034 18.63 17.3681 18.8439 17.0259 18.9722C16.6837 19.1006 16.1846 19.179 15.5286 19.2075L14.5875 19.2503L14.1383 17.8814L15.2933 17.7958C15.8352 17.7531 16.1846 17.6604 16.3414 17.5178C16.4983 17.3752 16.5767 17.09 16.5767 16.6622V7.37924ZM7.63598 19.2289V7.82842H12.6197V17.4108C12.6197 18.0668 12.4985 18.5159 12.2561 18.7584C12.0137 19.015 11.5645 19.1648 10.9085 19.2075L10.2669 19.2503L9.83908 17.967L10.5021 17.8814C10.8729 17.8386 11.1153 17.7602 11.2294 17.6461C11.3577 17.532 11.4219 17.3253 11.4219 17.0258V15.2505H8.81239V19.2289H7.63598ZM14.0528 8.08509L15.3147 8.12787V15.7639H14.0528V8.08509ZM11.4219 10.9299V9.04761H8.81239V10.9299H11.4219ZM8.81239 12.1277V14.0099H11.4219V12.1277H8.81239ZM40.391 17.7958L39.1291 19.2289C37.2753 17.8315 35.7068 16.1916 34.4234 14.3094C33.14 12.4271 31.9708 10.167 30.9156 7.52897C30.1455 9.68216 29.019 11.7783 27.5361 13.8174C26.0531 15.8565 24.3419 17.6105 22.4026 19.0792L21.1834 17.7958C23.3509 16.1988 25.1904 14.2809 26.7019 12.0421C28.2276 9.78911 29.29 7.49332 29.8889 5.15476C29.3328 4.12807 28.577 3.24398 27.6216 2.50248L26.8302 1.92497L27.8355 0.748561L28.3916 1.11218C28.9905 1.56848 29.4896 2.01766 29.8889 2.4597C30.3024 2.90175 30.7017 3.47926 31.0867 4.19224C31.4859 4.90522 31.9066 5.84635 32.3486 7.01563C33.1614 9.12604 34.2666 11.1438 35.664 13.0688C37.0614 14.9796 38.6371 16.5553 40.391 17.7958ZM50.944 13.411H47.5858V12.0635H50.944V10.3737H47.5858V9.00483H50.3237L46.0886 2.50248H48.2061L51.8209 8.55566H51.9707L55.5641 2.50248H57.596L53.361 9.00483H56.1202V10.3737H52.7407V12.0635H56.1202V13.411H52.7407V17.3467H50.944V13.411ZM68.5126 17.5606C67.7711 17.5606 67.0938 17.4536 66.4806 17.2397C65.8675 17.0116 65.3399 16.6123 64.8978 16.0419C64.4558 15.4715 64.1135 14.6944 63.8711 13.7105C63.6287 12.7123 63.5075 11.4503 63.5075 9.92457C63.5075 8.3988 63.6287 7.14396 63.8711 6.16006C64.1135 5.17615 64.4558 4.399 64.8978 3.82862C65.3399 3.24398 65.8675 2.84471 66.4806 2.63082C67.0938 2.40267 67.7711 2.28859 68.5126 2.28859C69.2541 2.28859 69.9314 2.40267 70.5446 2.63082C71.172 2.84471 71.7067 3.24398 72.1488 3.82862C72.5908 4.399 72.9331 5.17615 73.1755 6.16006C73.4179 7.14396 73.5391 8.3988 73.5391 9.92457C73.5391 11.4503 73.4179 12.7123 73.1755 13.7105C72.9331 14.6944 72.5908 15.4715 72.1488 16.0419C71.7067 16.6123 71.172 17.0116 70.5446 17.2397C69.9314 17.4536 69.2541 17.5606 68.5126 17.5606ZM68.5126 15.9564C69.0402 15.9564 69.4965 15.8708 69.8815 15.6997C70.2665 15.5143 70.5874 15.1935 70.844 14.7372C71.1007 14.2809 71.2861 13.6677 71.4002 12.8977C71.5285 12.1134 71.5927 11.1224 71.5927 9.92457C71.5927 8.74103 71.5285 7.76425 71.4002 6.99424C71.2861 6.20996 71.1007 5.58967 70.844 5.13337C70.5874 4.67706 70.2665 4.36335 69.8815 4.19224C69.4965 4.00686 69.0402 3.91418 68.5126 3.91418C67.9993 3.91418 67.5501 4.00686 67.1651 4.19224C66.7801 4.36335 66.4592 4.67706 66.2026 5.13337C65.9602 5.58967 65.7748 6.20996 65.6464 6.99424C65.5324 7.76425 65.4753 8.74103 65.4753 9.92457C65.4753 11.1224 65.5324 12.1134 65.6464 12.8977C65.7748 13.6677 65.9602 14.2809 66.2026 14.7372C66.4592 15.1935 66.7801 15.5143 67.1651 15.6997C67.5501 15.8708 67.9993 15.9564 68.5126 15.9564ZM77.9067 17.475C77.4076 17.475 77.0511 17.3966 76.8372 17.2397C76.6376 17.0829 76.5378 16.705 76.5378 16.1061C76.5378 15.5357 76.6376 15.1721 76.8372 15.0152C77.0511 14.8584 77.4076 14.7799 77.9067 14.7799C78.3915 14.7799 78.7409 14.8584 78.9548 15.0152C79.1687 15.1721 79.2756 15.5357 79.2756 16.1061C79.2756 16.705 79.1687 17.0829 78.9548 17.2397C78.7409 17.3966 78.3915 17.475 77.9067 17.475ZM87.27 17.5606C86.5285 17.5606 85.8512 17.4536 85.238 17.2397C84.6249 17.0116 84.0973 16.6123 83.6552 16.0419C83.2132 15.4715 82.871 14.6944 82.6285 13.7105C82.3861 12.7123 82.2649 11.4503 82.2649 9.92457C82.2649 8.3988 82.3861 7.14396 82.6285 6.16006C82.871 5.17615 83.2132 4.399 83.6552 3.82862C84.0973 3.24398 84.6249 2.84471 85.238 2.63082C85.8512 2.40267 86.5285 2.28859 87.27 2.28859C88.0115 2.28859 88.6889 2.40267 89.302 2.63082C89.9294 2.84471 90.4642 3.24398 90.9062 3.82862C91.3483 4.399 91.6905 5.17615 91.9329 6.16006C92.1753 7.14396 92.2965 8.3988 92.2965 9.92457C92.2965 11.4503 92.1753 12.7123 91.9329 13.7105C91.6905 14.6944 91.3483 15.4715 90.9062 16.0419C90.4642 16.6123 89.9294 17.0116 89.302 17.2397C88.6889 17.4536 88.0115 17.5606 87.27 17.5606ZM87.27 15.9564C87.7976 15.9564 88.2539 15.8708 88.6389 15.6997C89.024 15.5143 89.3448 15.1935 89.6015 14.7372C89.8581 14.2809 90.0435 13.6677 90.1576 12.8977C90.2859 12.1134 90.3501 11.1224 90.3501 9.92457C90.3501 8.74103 90.2859 7.76425 90.1576 6.99424C90.0435 6.20996 89.8581 5.58967 89.6015 5.13337C89.3448 4.67706 89.024 4.36335 88.6389 4.19224C88.2539 4.00686 87.7976 3.91418 87.27 3.91418C86.7567 3.91418 86.3075 4.00686 85.9225 4.19224C85.5375 4.36335 85.2167 4.67706 84.96 5.13337C84.7176 5.58967 84.5322 6.20996 84.4039 6.99424C84.2898 7.76425 84.2327 8.74103 84.2327 9.92457C84.2327 11.1224 84.2898 12.1134 84.4039 12.8977C84.5322 13.6677 84.7176 14.2809 84.96 14.7372C85.2167 15.1935 85.5375 15.5143 85.9225 15.6997C86.3075 15.8708 86.7567 15.9564 87.27 15.9564ZM94.6535 15.3147C96.2363 14.0741 97.5054 13.0189 98.4608 12.1491C99.4162 11.2792 100.158 10.5163 100.685 9.8604C101.213 9.20447 101.562 8.61982 101.733 8.10648C101.904 7.57888 101.99 7.05128 101.99 6.52367C101.99 5.99607 101.89 5.56115 101.691 5.21892C101.505 4.8767 101.263 4.60577 100.963 4.40613C100.664 4.2065 100.322 4.07103 99.9367 3.99974C99.5659 3.92844 99.2023 3.89279 98.8458 3.89279C98.3753 3.89279 97.8762 3.92131 97.3486 3.97835C96.821 4.02112 96.2648 4.12094 95.6802 4.2778V2.63082C96.1793 2.51674 96.7069 2.43119 97.263 2.37415C97.8334 2.31711 98.4323 2.28859 99.0597 2.28859C99.787 2.28859 100.443 2.36702 101.028 2.52387C101.612 2.68073 102.111 2.93027 102.525 3.2725C102.953 3.61473 103.273 4.05677 103.487 4.59864C103.715 5.1405 103.83 5.78931 103.83 6.54506C103.83 7.21526 103.73 7.84981 103.53 8.44871C103.33 9.03335 102.995 9.64651 102.525 10.2882C102.054 10.9156 101.42 11.6001 100.621 12.3416C99.8226 13.0688 98.8244 13.9101 97.6266 14.8655L96.7711 15.5286V15.7211H104.428V17.3467H94.6535V15.3147ZM110.635 17.5606C110.037 17.5606 109.495 17.5392 109.01 17.4964C108.539 17.4536 108.062 17.3823 107.577 17.2825V15.5927C108.133 15.7353 108.632 15.8352 109.074 15.8922C109.53 15.935 110.044 15.9564 110.614 15.9564C111.227 15.9564 111.783 15.9064 112.282 15.8066C112.796 15.6926 113.231 15.5143 113.587 15.2719C113.944 15.0152 114.222 14.6873 114.421 14.288C114.621 13.8745 114.721 13.3611 114.721 12.748C114.721 11.6357 114.393 10.8301 113.737 10.331C113.095 9.81763 112.004 9.56095 110.464 9.56095C110.065 9.56095 109.609 9.5966 109.095 9.6679C108.582 9.72494 108.09 9.79624 107.62 9.88179L108.625 2.50248H115.555V4.17085H110.079L109.459 8.23482C109.73 8.19204 110.001 8.16352 110.272 8.14926C110.543 8.12074 110.849 8.10648 111.192 8.10648C112.917 8.10648 114.243 8.46297 115.17 9.17595C116.097 9.88892 116.56 11.0368 116.56 12.6196C116.56 13.5037 116.418 14.2595 116.133 14.8869C115.862 15.5001 115.469 16.0063 114.956 16.4055C114.443 16.8048 113.815 17.0971 113.074 17.2825C112.347 17.4679 111.534 17.5606 110.635 17.5606ZM121.634 1.41163H135.066V3.03722H121.634V1.41163ZM137.825 14.181C137.754 14.9368 137.669 15.6141 137.569 16.213C137.455 16.869 137.312 17.3467 137.141 17.6461C136.984 17.9456 136.72 18.1666 136.35 18.3092C135.979 18.4518 135.401 18.5659 134.617 18.6514C134.275 18.6799 133.961 18.6942 133.676 18.6942C133.334 18.6942 132.934 18.6799 132.478 18.6514C131.794 18.6086 131.266 18.5017 130.895 18.3306C130.539 18.1595 130.282 17.8814 130.125 17.4964C129.968 17.1114 129.89 16.5695 129.89 15.8708V8.68399H126.318C126.29 9.96735 126.261 10.716 126.232 10.9299C126.118 12.2417 125.869 13.3611 125.484 14.288C125.099 15.2006 124.486 16.0704 123.644 16.8975C122.817 17.7245 121.648 18.5944 120.137 19.507L118.939 18.1167C120.379 17.3467 121.477 16.6194 122.233 15.935C123.003 15.2362 123.545 14.509 123.858 13.7533C124.172 12.9975 124.386 12.0564 124.5 10.9299C124.543 10.5306 124.578 9.78198 124.607 8.68399H119.901V7.07979H137.034V8.68399H131.623V15.4858C131.623 15.9278 131.644 16.2487 131.687 16.4483C131.744 16.6479 131.858 16.7905 132.029 16.8761C132.2 16.9617 132.478 17.0187 132.863 17.0472L133.59 17.0686L134.36 17.0472C134.788 17.0187 135.109 16.9617 135.323 16.8761C135.537 16.7763 135.687 16.6266 135.772 16.4269C135.872 16.2273 135.957 15.9207 136.029 15.5072C136.114 14.9511 136.179 14.3379 136.221 13.6677L137.825 14.181ZM146.496 1.8608H148.143L142.389 17.9883H140.742L146.496 1.8608ZM155.629 4.25641L151.95 4.96225V3.40083L156.292 2.50248H157.554V17.3467H155.629V4.25641ZM164.061 2.50248H167.141L170.927 12.0635H171.055L174.841 2.50248H177.878V17.3467H175.953V4.44891H175.825L172.018 13.9885H169.922L166.072 4.44891H165.943V17.3467H164.061V2.50248ZM192.018 10.4165C192.018 8.6626 192.282 7.00137 192.81 5.43282C193.337 3.86427 194.15 2.34563 195.248 0.876896H197.002C195.876 2.47396 195.07 4.03538 194.585 5.56115C194.1 7.07267 193.858 8.64121 193.858 10.2668C193.858 11.9352 194.1 13.5394 194.585 15.0794C195.07 16.6194 195.854 18.1595 196.938 19.6995H195.184C193.074 16.9189 192.018 13.8246 192.018 10.4165ZM202.251 7.82842L201.951 6.33117C202.136 6.25987 202.265 6.1957 202.336 6.13866C202.422 6.06737 202.529 5.94616 202.657 5.77505C203.042 5.24744 203.513 4.44178 204.069 3.35806C204.625 2.27433 205.088 1.23339 205.459 0.235218L206.785 0.76995C206.343 1.78238 205.865 2.78054 205.352 3.76445C204.853 4.74836 204.375 5.56828 203.919 6.22422L206.293 6.11728C206.864 5.11911 207.284 4.32057 207.555 3.72167L208.753 4.32057C208.225 5.44708 207.548 6.72331 206.721 8.14926C205.894 9.56095 205.209 10.6304 204.668 11.3577C205.181 11.2864 205.78 11.2008 206.464 11.101C207.149 11.0012 207.691 10.9156 208.09 10.8443L208.175 12.363C207.962 12.3772 207.277 12.4628 206.122 12.6196C204.981 12.7765 204.24 12.8906 203.898 12.9619C203.684 12.9904 203.27 13.0902 202.657 13.2613L202.315 11.5929C202.6 11.5074 202.8 11.429 202.914 11.3577C203.042 11.2721 203.156 11.1509 203.256 10.994C203.798 10.2668 204.532 9.12604 205.459 7.57175C204.133 7.67157 203.356 7.72147 203.128 7.72147C202.885 7.72147 202.593 7.75712 202.251 7.82842ZM220.624 19.4428C219.426 19.1148 218.364 18.7655 217.437 18.3947C216.51 18.024 215.683 17.5962 214.956 17.1114C213.402 18.1381 211.519 18.9509 209.309 19.5498L208.646 18.1381C210.728 17.6675 212.446 17.0401 213.801 16.2558C212.845 15.443 212.004 14.3664 211.277 13.026C210.393 15.2648 209.074 17.3324 207.32 19.2289L206.25 18.1381C206.935 17.4536 207.562 16.7264 208.133 15.9564C207.363 16.1988 206.329 16.4697 205.031 16.7691C203.748 17.0686 202.714 17.2825 201.93 17.4108L201.63 15.8708C202.4 15.7567 203.463 15.5428 204.817 15.2291C206.186 14.9012 207.27 14.6088 208.068 14.3522L208.175 15.0366L208.282 15.7425C209.423 14.1026 210.264 12.2204 210.806 10.0957H207.919V8.81233H211.106C211.191 8.38454 211.284 7.78564 211.384 7.01563H208.625V5.73227H210.464C210.336 5.34726 210.157 4.9266 209.929 4.4703C209.715 4.01399 209.523 3.65038 209.352 3.37944L210.293 2.93027C209.651 2.97305 209.081 2.99444 208.582 2.99444L208.304 1.64691C209.758 1.63265 211.683 1.51858 214.079 1.30468C216.474 1.07653 218.435 0.834118 219.961 0.577446L220.175 1.94636C218.735 2.20303 216.774 2.43832 214.293 2.65221C214.478 2.98018 214.685 3.43648 214.913 4.02112C215.155 4.59151 215.327 5.03355 215.426 5.34726L214.635 5.73227H216.539C216.795 5.29022 217.073 4.76262 217.373 4.14946C217.687 3.52204 217.915 2.99444 218.057 2.56665L219.341 2.84471C219.212 3.21546 219.02 3.6789 218.763 4.23502C218.506 4.77688 218.243 5.27596 217.972 5.73227H220.196V7.01563H212.795C212.681 7.7999 212.582 8.3988 212.496 8.81233H220.731V10.0957H212.218C212.118 10.5235 211.976 11.0368 211.79 11.6357H218.977V12.9619C218.278 14.1882 217.323 15.2933 216.111 16.2772C217.366 16.9759 219.048 17.5392 221.159 17.967L220.624 19.4428ZM211.683 5.34726L211.042 5.73227H214.207C214.093 5.333 213.929 4.8767 213.715 4.36335C213.501 3.85001 213.316 3.42222 213.159 3.07999L214.25 2.65221C212.453 2.7948 211.198 2.88749 210.485 2.93027C210.671 3.22972 210.885 3.63612 211.127 4.14946C211.384 4.64854 211.569 5.04781 211.683 5.34726ZM212.646 12.9191C213.302 13.9885 214.072 14.8512 214.956 15.5072C215.925 14.8085 216.738 13.9458 217.394 12.9191H212.646ZM230.621 3.95696C229.851 5.53976 228.952 7.00137 227.926 8.34176V19.5498H226.386V10.1599C225.573 11.0297 224.625 11.9423 223.541 12.8977L222.45 11.6357C225.117 9.42549 227.206 6.8659 228.717 3.95696H223.776V2.50248H229.423C229.765 1.74673 230.065 0.941064 230.321 0.0854919L232.011 0.363553C231.783 1.07653 231.526 1.78951 231.241 2.50248H241.401V3.95696H230.621ZM241.85 11.7427V13.2185H236.31L236.332 16.8333C236.332 17.4893 236.253 17.9812 236.096 18.3092C235.954 18.6514 235.676 18.901 235.262 19.0578C234.849 19.2289 234.214 19.3501 233.359 19.4214L232.139 19.5284L231.605 17.9883L233.059 17.86C233.573 17.8172 233.943 17.7531 234.171 17.6675C234.4 17.5819 234.549 17.4536 234.621 17.2825C234.706 17.1114 234.749 16.8404 234.749 16.4697L234.728 13.2185H229.145V11.7427H234.728V10.1599L237.915 7.8712H230.407V6.45951H240.417V7.8712L236.31 10.8871V11.7427H241.85ZM243.462 6.18144C245.444 5.31161 247.227 4.34909 248.81 3.29389C250.407 2.23868 251.69 1.16922 252.66 0.0854919H254.264C255.276 1.19774 256.588 2.30285 258.2 3.40083C259.811 4.48456 261.586 5.44708 263.526 6.28839L262.734 7.72147C258.585 5.69662 255.505 3.62899 253.494 1.51858C252.51 2.54526 251.22 3.58621 249.623 4.64141C248.04 5.68236 246.272 6.68766 244.318 7.65731L243.462 6.18144ZM248.04 7.18674V5.68949H258.863V7.18674H248.04ZM253.965 9.24011H261.087V14.6302C261.087 15.3004 261.023 15.8066 260.895 16.1489C260.766 16.4911 260.524 16.7406 260.167 16.8975C259.825 17.0543 259.29 17.1684 258.563 17.2397L257.922 17.3039L257.408 15.7211L258.307 15.6355C258.72 15.5927 259.005 15.5357 259.162 15.4644C259.333 15.3931 259.44 15.279 259.483 15.1222C259.526 14.9511 259.547 14.6587 259.547 14.2452V10.716H255.483V19.4428H253.965V9.24011ZM245.944 17.1542V9.32567H252.04V17.1542H245.944ZM250.564 10.7801H247.419V15.6783H250.564V10.7801ZM275.362 4.14946H282.549V13.1971H275.362V19.4642H273.651V13.1971H266.528V4.14946H273.651V-6.5537e-05L275.362 0.0854919V4.14946ZM268.196 5.73227V11.6143H273.651V5.73227H268.196ZM275.362 11.6143H280.902V5.73227H275.362V11.6143ZM292.16 10.2668C292.16 8.64121 291.918 7.07267 291.433 5.56115C290.948 4.03538 290.143 2.47396 289.016 0.876896H290.77C291.868 2.34563 292.681 3.86427 293.209 5.43282C293.736 7.00137 294 8.6626 294 10.4165C294 13.8246 292.945 16.9189 290.834 19.6995H289.08C290.164 18.1595 290.948 16.6194 291.433 15.0794C291.918 13.5394 292.16 11.9352 292.16 10.2668Z" fill="#686868"/>
</svg>
