<svg width="41" height="20" viewBox="0 0 41 20" fill="none" xmlns="http://www.w3.org/2000/svg">
<path d="M19.7937 16.5956V18.0218H9.61592V19.5993H8.1033V7.32547C7.98806 7.51274 7.69994 7.93772 7.23895 8.60039L5.96403 7.60638C7.56309 5.50313 8.72276 2.96769 9.44305 8.706e-05L11.0637 0.237783C10.7036 1.5055 10.3434 2.61475 9.98327 3.56554H13.7216C13.6208 3.09014 13.4839 2.56433 13.311 1.9881C13.1526 1.39746 13.0157 0.958077 12.9005 0.66996L14.3915 0.389045C14.5067 0.677162 14.658 1.16696 14.8452 1.85844C15.0469 2.54992 15.191 3.11896 15.2774 3.56554H19.4047V5.01333H15.0829V7.86569H19.0157V9.27026H15.0829V12.0794H19.0157V13.5272H15.0829V16.5956H19.7937ZM7.04447 9.65922L7.15252 10.3939C6.53307 10.6388 5.82718 10.8981 5.03486 11.1718V17.0278C5.03486 17.5896 4.95562 18.0218 4.79716 18.3243C4.6531 18.6413 4.401 18.8646 4.04085 18.9942C3.68071 19.1383 3.1693 19.2319 2.50663 19.2751L1.55584 19.3616L1.10206 17.8273L2.16089 17.7409C2.53544 17.7121 2.80915 17.6617 2.98202 17.5896C3.15489 17.532 3.27014 17.4312 3.32776 17.2871C3.39979 17.1287 3.43581 16.891 3.43581 16.574V11.6904C2.22571 12.0938 1.19569 12.3891 0.345749 12.5764L8.26725e-06 11.0206C0.61946 10.9053 1.76473 10.5884 3.43581 10.0698V5.42389H0.86436V3.91128H3.43581V0.259393L5.03486 0.30261V3.91128H7.23895V5.42389H5.03486V9.55117C5.76956 9.32068 6.40341 9.09739 6.93643 8.8813L7.04447 9.65922ZM9.61592 7.86569H13.5271V5.01333H9.61592V7.86569ZM9.61592 12.0794H13.5271V9.27026H9.61592V12.0794ZM13.5271 13.5272H9.61592V16.5956H13.5271V13.5272ZM35.1656 14.9534V17.4816H41V18.951H27.797V17.4816H33.6314V14.9534H29.0503V13.5056H33.6314V11.1286H29.3528V1.42627H39.4874V11.1286H35.1656V13.5056H40.0708V14.9534H35.1656ZM28.5101 15.7097L28.5749 16.4444C27.7682 16.6749 26.6373 16.9558 25.1824 17.2871C23.7418 17.604 22.5749 17.8345 21.6817 17.9786L21.4656 16.4876C22.1139 16.4012 23.1439 16.1995 24.5557 15.8825V10.005H22.0707V8.49234H24.5557V3.58715H21.8546V2.09614H28.4669V3.58715H26.0683V8.49234H28.3588V10.005H26.0683V15.5368C27.1632 15.2775 27.9555 15.0686 28.4453 14.9102L28.5101 15.7097ZM33.6314 5.55355V2.89567H30.8871V5.55355H33.6314ZM35.1656 5.55355H37.9964V2.89567H35.1656V5.55355ZM30.8871 7.00134V9.65922H33.6314V7.00134H30.8871ZM35.1656 7.00134V9.65922H37.9964V7.00134H35.1656Z" fill="#686868"/>
</svg>
